<svg width="190" height="158" viewBox="0 0 190 158" fill="none" xmlns="http://www.w3.org/2000/svg">
<path d="M84.5581 30.3994C84.5213 30.3994 84.4845 30.3981 84.4475 30.3958C82.0102 30.2397 73.6705 29.0642 68.6899 20.483C68.3219 19.8496 68.3946 19.0436 68.8708 18.478C73.0302 15.1072 76.2794 11.4591 78.1972 7.4055C78.5435 6.99426 79.0632 6.76946 79.5892 6.77872C80.1293 6.79145 80.627 7.04483 80.9547 7.47393C83.3193 10.5702 87.9878 16.0512 92.6852 17.9729C93.2132 18.1891 93.5953 18.6277 93.7339 19.1772C93.8714 19.722 93.7441 20.2836 93.385 20.718L85.9137 29.7581C85.5778 30.1647 85.0775 30.3994 84.5581 30.3994Z" fill="#E6E6E6"/>
<path d="M70.4127 19.0224C70.2854 19.1738 70.2622 19.3897 70.3549 19.5603C74.8607 27.8278 82.9163 28.4764 84.4853 28.5224C84.6364 28.5309 84.7781 28.4632 84.874 28.3471L92.2917 19.3722C92.3967 19.2449 92.429 19.0826 92.3808 18.9259C92.332 18.7686 92.2122 18.6512 92.052 18.6049C87.0141 17.1378 81.7282 10.3424 80.2282 8.29442C80.1404 8.17474 80.0049 8.10301 79.8566 8.09805C79.7042 8.09656 79.5653 8.15623 79.4683 8.27127C77.322 12.4414 74.3168 16.0341 70.4127 19.0224Z" fill="white"/>
<path d="M74.148 20.9591L80.8719 14.1277C81.3315 13.6607 80.6114 12.942 80.1512 13.4096L73.4274 20.241C72.9678 20.708 73.6878 21.4267 74.148 20.9591Z" fill="#E6E6E6"/>
<path d="M78.2063 22.8836C80.062 21.2263 81.6746 19.3072 82.995 17.2015C83.3436 16.6457 82.4622 16.1353 82.115 16.689C80.8384 18.7248 79.2795 20.5634 77.4856 22.1655C76.9962 22.6027 77.7189 23.3189 78.2063 22.8836Z" fill="#E6E6E6"/>
<path d="M81.8639 25.1883C83.5534 23.3233 84.9916 21.2419 86.1239 18.9968C86.4176 18.4143 85.5387 17.8995 85.2439 18.4842C84.1499 20.6534 82.776 22.6679 81.1432 24.4702C80.7047 24.9542 81.4232 25.6746 81.8639 25.1883Z" fill="#E6E6E6"/>
<path d="M90.6731 33.1075C90.6362 33.1075 90.5994 33.1062 90.5624 33.1039C88.1252 32.9479 79.7855 31.7723 74.8048 23.1911C74.4369 22.5577 74.5095 21.7517 74.9858 21.1861C78.9374 17.7709 81.9126 14.0363 84.3121 10.1136C84.6585 9.70239 85.1782 9.47759 85.7042 9.48685C86.2443 9.49958 86.7419 9.75296 87.0697 10.1821C89.4343 13.2783 94.1028 18.7593 98.8001 20.681C99.3281 20.8972 99.7103 21.3359 99.8488 21.8853C99.9863 22.4301 99.8591 22.9918 99.5 23.4261L92.0286 32.4662C91.6927 32.8728 91.1924 33.1075 90.6731 33.1075Z" fill="#E6E6E6"/>
<path d="M76.5276 21.7306C76.4004 21.882 76.3772 22.0978 76.4699 22.2684C80.9756 30.5359 89.0312 31.1845 90.6002 31.2305C90.7514 31.2391 90.893 31.1713 90.9889 31.0553L98.4066 22.0803C98.5116 21.953 98.544 21.7907 98.4957 21.634C98.447 21.4767 98.3272 21.3593 98.167 21.313C93.1291 19.8459 87.8432 13.0505 86.3431 11.0025C86.2554 10.8829 86.1199 10.8111 85.9716 10.8062C85.8191 10.8047 85.6803 10.8644 85.5832 10.9794C83.012 15.2367 80.1197 19.0105 76.5276 21.7306Z" fill="white"/>
<path d="M80.263 23.6672L86.9868 16.8358C87.4465 16.3688 86.7264 15.6501 86.2662 16.1177L79.5423 22.9491C79.0827 23.4161 79.8028 24.1348 80.263 23.6672Z" fill="#E6E6E6"/>
<path d="M84.3212 25.5918C86.1769 23.9344 87.7895 22.0154 89.11 19.9097C89.4586 19.3538 88.5771 18.8435 88.23 19.3971C86.9534 21.4329 85.3944 23.2716 83.6006 24.8737C83.1112 25.3108 83.8339 26.0271 84.3212 25.5918Z" fill="#E6E6E6"/>
<path d="M87.9788 27.8964C89.6684 26.0315 91.1066 23.9501 92.2388 21.7049C92.5326 21.1225 91.6537 20.6076 91.3588 21.1923C90.2648 23.3616 88.8909 25.3761 87.2582 27.1783C86.8196 27.6624 87.5382 28.3828 87.9788 27.8964Z" fill="#E6E6E6"/>
<path d="M157.598 96.0714C157.561 96.0714 157.524 96.0701 157.487 96.0678C155.05 95.9117 146.71 94.7362 141.729 86.155C141.362 85.5216 141.434 84.7156 141.91 84.15L151.237 73.0775C151.583 72.6663 152.103 72.4415 152.629 72.4507C153.169 72.4634 153.862 72.623 153.994 73.1459C155.069 77.3952 159.696 82.9129 165.725 83.6449C166.291 83.7137 166.635 84.2997 166.773 84.8492C166.911 85.394 166.784 85.9556 166.425 86.39L158.953 95.4301C158.617 95.8367 158.117 96.0714 157.598 96.0714Z" fill="#E6E6E6"/>
<path d="M143.452 84.6944C143.325 84.8458 143.302 85.0617 143.395 85.2323C147.9 93.4998 155.956 94.1484 157.525 94.1944C157.676 94.2029 157.818 94.1352 157.914 94.0191L165.331 85.0442C165.436 84.9169 165.469 84.7546 165.42 84.5979C165.372 84.4405 165.258 84.2847 165.092 84.2769C158.679 83.9772 153.528 77.067 153.268 73.9664C153.255 73.8187 153.045 73.775 152.896 73.77C152.744 73.7686 152.605 73.8282 152.508 73.9433L143.452 84.6944Z" fill="white"/>
<path d="M147.188 86.6311L153.911 79.7996C154.371 79.3327 153.651 78.614 153.191 79.0815L146.467 85.913C146.007 86.38 146.727 87.0987 147.188 86.6311Z" fill="#E6E6E6"/>
<path d="M151.246 88.5556C153.102 86.8983 154.714 84.9792 156.035 82.8735C156.383 82.3177 155.502 81.8073 155.155 82.361C153.878 84.3967 152.319 86.2354 150.525 87.8375C150.036 88.2747 150.758 88.9909 151.246 88.5556Z" fill="#E6E6E6"/>
<path d="M154.903 90.8601C156.593 88.9952 158.031 86.9138 159.163 84.6686C159.457 84.0862 158.578 83.5714 158.283 84.1561C157.189 86.3253 155.816 88.3398 154.183 90.1421C153.744 90.6261 154.463 91.3465 154.903 90.8601Z" fill="#E6E6E6"/>
<path d="M129.658 155.092L125.629 155.092L123.713 139.607L129.659 139.608L129.658 155.092Z" fill="#FFB6B6"/>
<path d="M115.855 155.001C115.729 155.212 115.663 155.891 115.663 156.136C115.663 156.889 116.275 157.499 117.031 157.499H129.507C130.022 157.499 130.44 157.082 130.44 156.569V156.051C130.44 156.051 131.057 154.496 129.787 152.578C129.787 152.578 128.207 154.08 125.847 151.728L125.151 150.472L120.114 154.143L117.322 154.486C116.711 154.56 116.169 154.474 115.855 155.001Z" fill="#2F2E41"/>
<path d="M166.86 147.17L163.429 149.273L153.654 137.085L158.719 133.981L166.86 147.17Z" fill="#FFB6B6"/>
<path d="M155.056 154.299C155.06 154.544 155.361 155.157 155.489 155.366C155.885 156.007 156.727 156.207 157.371 155.812L167.997 149.298C168.436 149.029 168.573 148.457 168.303 148.019L168.031 147.578C168.031 147.578 167.739 145.931 165.648 144.962C165.648 144.962 165.092 147.065 161.846 146.294L160.592 145.588L158.232 151.345L156.034 153.094C155.553 153.477 155.046 153.686 155.056 154.299Z" fill="#2F2E41"/>
<path d="M141.538 82.6677C141.339 81.8009 141.354 80.9595 141.541 80.2622L139.114 72.1285L143.066 71.0607L145.103 79.4265C145.575 79.9691 145.956 80.7176 146.156 81.5844C146.611 83.5646 145.947 85.4124 144.672 85.7116C143.397 86.0107 141.994 84.648 141.538 82.6677Z" fill="#FFB6B6"/>
<path d="M119.05 28.4505C119.05 28.4505 125.42 25.6879 128.976 29.68C132.214 33.3137 138.785 44.2479 138.11 45.3117L144.58 75.7729L139.784 77.2449L127.064 42.2076L119.05 28.4505Z" fill="#E7C07B"/>
<path d="M112.036 73.5927L115.317 111.744L123.248 147.171L131.726 146.354L127.624 107.657L130.135 73.2668L112.036 73.5927Z" fill="#2F2E41"/>
<path d="M112.714 81.8709L133.155 114.296L156.477 142.178L163.64 137.585L142.219 105.049C138.941 90.7176 135.31 77.4511 128.657 73.3271L112.714 81.8709Z" fill="#2F2E41"/>
<path d="M113.907 82.0294C112.948 82.0294 112.019 81.6929 111.263 81.0536C110.247 80.1951 109.718 78.9436 109.811 77.62L111.594 60.5729L110.913 41.9577L110.917 41.9376L113.034 31.8218C113.055 31.5003 113.123 31.1599 113.232 30.8332L116.359 21.4655C116.921 19.7805 118.496 18.6484 120.278 18.6484H123.043C124.427 18.6484 125.712 19.3336 126.48 20.4813L128.9 24.0992C129.061 24.3396 129.197 24.5976 129.304 24.8662L134.647 38.3048C134.817 38.7314 134.913 39.1802 134.934 39.6385L136.592 76.9345C136.647 78.1727 136.147 79.3577 135.221 80.1855C134.3 81.0086 133.071 81.3726 131.852 81.1851C124.874 80.1114 118.767 80.9894 114.873 81.9154C114.551 81.9918 114.227 82.0294 113.907 82.0294Z" fill="#E1B770"/>
<path d="M113.129 44.9789L108.48 41.4363C108.48 41.4363 110.668 22.0879 116.411 22.0879C122.154 22.0879 125.163 18.8177 125.163 18.8177C125.163 18.8177 145.674 47.4315 139.931 50.7017C134.188 53.9718 126.257 52.3368 126.257 52.3368L123.463 27.893C123.12 26.6009 121.335 26.4609 120.793 27.6837L113.129 44.9789Z" fill="#3F3D56"/>
<path d="M120.778 17.8148C125.168 17.8148 128.727 14.2683 128.727 9.89348C128.727 5.51866 125.168 1.97217 120.778 1.97217C116.387 1.97217 112.828 5.51866 112.828 9.89348C112.828 14.2683 116.387 17.8148 120.778 17.8148Z" fill="#FFB6B6"/>
<path d="M127.073 15.8817C126.356 16.1485 125.257 16.5633 124.54 16.8301C123.871 15.5016 124.69 14.8123 124.775 13.3285C124.804 12.8333 124.875 12.3376 124.834 11.8433C124.793 11.349 124.623 10.8417 124.248 10.5146C123.676 10.0143 122.723 10.0957 122.169 10.616C121.614 11.1363 121.456 11.9961 121.683 12.7205C119.503 11.7816 118.095 9.31846 118.396 6.97136C117.745 6.7171 117.078 6.4594 116.379 6.43995C115.68 6.42049 114.931 6.68625 114.559 7.27588C114.298 7.68933 114.246 8.21416 113.952 8.60579C113.476 9.24213 112.447 9.29144 111.815 8.80874C111.182 8.32604 110.94 7.44885 111.075 6.66652C111.21 5.8842 110.229 4.28768 110.778 3.71284C111.153 3.3207 113.013 3.87634 113.431 3.53041C113.812 3.21481 114.195 2.89817 114.616 2.63635C115.149 2.30401 115.74 2.06333 116.355 1.9281C116.936 1.80018 117.534 1.76658 118.128 1.73338C118.731 1.69968 119.566 0.502438 120.17 0.468739C121.946 0.369527 123.534 1.43851 125.238 1.94744C126.943 2.45637 128.015 3.91784 128.959 5.42116C130.303 7.5625 129.846 9.9088 128.92 11.9563C128.692 12.4625 129.459 12.9943 129.346 13.5377C129.24 14.0428 128.765 14.4086 128.654 14.9126C128.559 15.3435 127.998 14.8443 127.864 15.2648C127.748 15.6277 127.408 15.8839 127.044 15.9997C126.68 16.1156 126.29 16.1132 125.908 16.1098" fill="#2F2E41"/>
<path d="M125.367 18.6145L125.647 18.8178L126.353 19.3302C128.477 20.8708 128.279 24.0869 125.983 25.3581L123.112 20.7876" fill="#3F3D56"/>
<path d="M171.567 152.132C172.269 152.176 172.657 151.307 172.126 150.801L172.073 150.592C172.08 150.575 172.087 150.558 172.094 150.542C172.804 148.855 175.209 148.867 175.913 150.556C176.538 152.055 177.333 153.556 177.529 155.141C177.616 155.841 177.577 156.554 177.421 157.24C178.885 154.054 179.655 150.576 179.655 147.078C179.655 146.199 179.607 145.32 179.508 144.443C179.427 143.726 179.315 143.013 179.17 142.307C178.387 138.489 176.69 134.853 174.244 131.816C173.068 131.176 172.087 130.174 171.495 128.974C171.282 128.541 171.115 128.075 171.036 127.601C171.17 127.618 171.541 125.587 171.44 125.463C171.626 125.181 171.96 125.04 172.164 124.765C173.177 123.396 174.573 123.635 175.302 125.495C176.858 126.278 176.873 127.577 175.918 128.825C175.31 129.62 175.227 130.695 174.694 131.545C174.749 131.615 174.806 131.683 174.861 131.753C175.866 133.039 176.737 134.42 177.47 135.872C177.263 134.259 177.569 132.315 178.09 131.062C178.684 129.634 179.797 128.432 180.778 127.198C181.955 125.715 184.37 126.362 184.577 128.242C184.579 128.26 184.581 128.278 184.583 128.296C184.437 128.378 184.295 128.465 184.155 128.557C183.361 129.081 183.635 130.308 184.577 130.453L184.598 130.456C184.546 130.979 184.456 131.497 184.324 132.007C185.582 136.853 182.867 138.618 178.99 138.697C178.904 138.741 178.821 138.784 178.735 138.826C179.128 139.928 179.442 141.058 179.675 142.204C179.883 143.216 180.028 144.24 180.109 145.267C180.21 146.564 180.201 147.867 180.092 149.161L180.098 149.115C180.377 147.69 181.154 146.358 182.281 145.436C183.961 144.06 186.335 143.554 188.148 142.448C189.02 141.916 190.138 142.604 189.986 143.612L189.979 143.66C189.709 143.77 189.445 143.896 189.191 144.038C189.045 144.12 188.903 144.207 188.763 144.299C187.968 144.823 188.243 146.051 189.185 146.195L189.206 146.199C189.222 146.201 189.235 146.203 189.25 146.205C188.787 147.301 188.142 148.317 187.335 149.194C186.548 153.425 183.171 153.826 179.558 152.594H179.556C179.161 154.308 178.584 155.983 177.842 157.579H171.721C171.699 157.511 171.679 157.441 171.659 157.373C172.225 157.408 172.796 157.376 173.353 157.273C172.899 156.718 172.445 156.158 171.991 155.602C171.98 155.592 171.971 155.581 171.962 155.57C171.732 155.285 171.499 155.003 171.269 154.719L171.269 154.719C171.254 153.846 171.359 152.976 171.567 152.132Z" fill="#F2F2F2"/>
<path d="M65.7273 157.597C65.7273 157.82 65.9074 158 66.1316 158H189.548C189.772 158 189.952 157.82 189.952 157.597C189.952 157.374 189.772 157.194 189.548 157.194H66.1316C65.9074 157.194 65.7273 157.374 65.7273 157.597Z" fill="#CCCCCC"/>
<path d="M85.2757 28.0418C85.9926 28.5132 86.5432 29.1069 86.8781 29.7125L93.9922 33.7735L91.9539 37.0901L84.9569 32.6136C84.2663 32.5449 83.502 32.274 82.7851 31.8026C81.1474 30.7256 80.3773 29.0107 81.065 27.9722C81.7528 26.9337 83.638 26.9649 85.2757 28.0418Z" fill="#FFB6B6"/>
<path d="M118.747 23.7609C123.284 20.9885 127.843 27.3374 123.809 30.7965L123.795 30.8083L107.678 45.9133L88.3896 36.4222L90.2969 31.2976L105.241 37.1963L116.451 25.6002C117.231 24.8217 117.999 24.2183 118.747 23.7609Z" fill="#DDB36C"/>
<path d="M23.2011 48.9822C22.8264 48.9822 22.5217 49.2858 22.5217 49.6592V60.1532C22.5217 60.5266 22.8264 60.8302 23.2011 60.8302C23.5758 60.8302 23.8805 60.5266 23.8805 60.1532V49.6592C23.8805 49.2858 23.5758 48.9822 23.2011 48.9822Z" fill="#3F3D56"/>
<path d="M29.86 59.0941C32.1983 59.0941 34.094 57.245 34.094 54.964C34.094 52.683 32.1983 50.8339 29.86 50.8339C27.5216 50.8339 25.626 52.683 25.626 54.964C25.626 57.245 27.5216 59.0941 29.86 59.0941Z" fill="#EFCA89"/>
<path d="M63.8023 53.551H41.0122C40.2304 53.551 39.5943 52.9171 39.5943 52.138C39.5943 51.359 40.2304 50.7251 41.0122 50.7251H63.8023C64.5841 50.7251 65.2202 51.359 65.2202 52.138C65.2202 52.9171 64.5841 53.551 63.8023 53.551Z" fill="#EFCA89"/>
<path d="M81.5877 58.3332H41.0122C40.2304 58.3332 39.5943 57.6993 39.5943 56.9203C39.5943 56.1412 40.2304 55.5073 41.0122 55.5073H81.5877C82.3695 55.5073 83.0056 56.1412 83.0056 56.9203C83.0056 57.6993 82.3695 58.3332 81.5877 58.3332Z" fill="#EFCA89"/>
<path d="M4.23401 81.4294C6.57239 81.4294 8.46803 79.5803 8.46803 77.2993C8.46803 75.0183 6.57239 73.1692 4.23401 73.1692C1.89563 73.1692 0 75.0183 0 77.2993C0 79.5803 1.89563 81.4294 4.23401 81.4294Z" fill="#EFCA89"/>
<path d="M38.1763 75.8863H15.3863C14.6044 75.8863 13.9683 75.2524 13.9683 74.4734C13.9683 73.6943 14.6044 73.0604 15.3863 73.0604H38.1763C38.9581 73.0604 39.5943 73.6943 39.5943 74.4734C39.5943 75.2524 38.9582 75.8863 38.1763 75.8863Z" fill="#EFCA89"/>
<path d="M44.0008 94.9732C46.3392 94.9732 48.2348 93.1241 48.2348 90.8431C48.2348 88.5621 46.3392 86.713 44.0008 86.713C41.6624 86.713 39.7668 88.5621 39.7668 90.8431C39.7668 93.1241 41.6624 94.9732 44.0008 94.9732Z" fill="#EFCA89"/>
<path d="M95.7285 94.2125H55.1531C54.3713 94.2125 53.7351 93.5786 53.7351 92.7995C53.7351 92.0205 54.3712 91.3866 55.1531 91.3866H95.7286C96.5104 91.3866 97.1465 92.0205 97.1465 92.7995C97.1465 93.5786 96.5104 94.2125 95.7285 94.2125Z" fill="#F2F2F2"/>
<path d="M85.7042 17.747C88.0426 17.747 89.9382 15.8979 89.9382 13.6169C89.9382 11.3359 88.0426 9.48682 85.7042 9.48682C83.3658 9.48682 81.4702 11.3359 81.4702 13.6169C81.4702 15.8979 83.3658 17.747 85.7042 17.747Z" fill="#EFCA89"/>
<path d="M163.64 86.9863C165.978 86.9863 167.874 85.1372 167.874 82.8562C167.874 80.5752 165.978 78.7261 163.64 78.7261C161.301 78.7261 159.406 80.5752 159.406 82.8562C159.406 85.1372 161.301 86.9863 163.64 86.9863Z" fill="#CF9F54"/>
</svg>
