<svg width="376" height="195" viewBox="0 0 376 195" fill="none" xmlns="http://www.w3.org/2000/svg">
<path d="M135.265 63.121C140.257 61.9968 145.67 65.9722 146.378 70.9875C147.232 77.0392 141.632 81.6877 137.097 84.5532C132.107 87.7061 126.694 90.5231 123.946 96.0352C121.572 100.799 121.228 106.599 123.18 111.569C126.959 121.189 137.763 124.499 144.932 130.926C146.685 132.498 148.241 134.287 149.367 136.364C150.846 139.089 151.451 142.199 151.311 145.285C151.028 151.566 147.628 157.172 143.012 161.273C138.259 165.496 131.77 167.622 127.75 172.684C126.026 174.855 124.72 177.6 124.915 180.436C125.083 182.89 126.301 185.308 128.309 186.762C129.287 187.471 130.415 187.867 131.617 187.955C132.351 188.009 132.348 186.865 131.617 186.811C128.998 186.62 127.05 184.397 126.347 181.995C125.528 179.197 126.529 176.32 128.164 174.021C130.025 171.403 132.703 169.549 135.398 167.877C138.128 166.182 140.905 164.58 143.357 162.485C147.952 158.561 151.46 153.224 152.282 147.157C152.699 144.08 152.444 140.881 151.346 137.963C150.465 135.62 149.071 133.523 147.364 131.7C144.019 128.127 139.702 125.649 135.646 122.988C131.587 120.326 127.434 117.328 125.076 112.961C122.492 108.175 122.414 102.124 124.657 97.1927C125.858 94.5527 127.695 92.3751 129.955 90.5735C132.417 88.6114 135.206 87.1117 137.854 85.4265C142.467 82.4918 147.422 78.2015 147.588 72.2861C147.729 67.2744 143.479 62.7431 138.647 61.9244C137.415 61.7157 136.181 61.7434 134.961 62.0181C134.243 62.1797 134.547 63.2827 135.265 63.121Z" fill="#3F3D56"/>
<path d="M255.985 63.6293C250.993 62.5051 245.579 66.4805 244.872 71.4958C244.018 77.5475 249.618 82.196 254.153 85.0615C259.142 88.2144 264.556 91.0314 267.304 96.5435C269.678 101.307 270.022 107.107 268.07 112.077C264.291 121.697 253.487 125.008 246.317 131.434C244.564 133.006 243.009 134.795 241.883 136.872C240.404 139.597 239.799 142.707 239.938 145.793C240.222 152.074 243.622 157.68 248.237 161.781C252.991 166.004 259.479 168.131 263.5 173.193C265.224 175.363 266.529 178.108 266.335 180.944C266.166 183.398 264.949 185.817 262.941 187.271C261.962 187.979 260.835 188.376 259.633 188.464C258.899 188.517 258.902 187.373 259.633 187.32C262.252 187.128 264.2 184.905 264.903 182.503C265.722 179.706 264.721 176.828 263.086 174.529C261.224 171.911 258.546 170.057 255.852 168.385C253.122 166.691 250.345 165.089 247.892 162.994C243.297 159.069 239.79 153.732 238.968 147.666C238.55 144.589 238.805 141.389 239.903 138.472C240.785 136.129 242.179 134.031 243.885 132.208C247.231 128.635 251.547 126.157 255.604 123.497C259.663 120.834 263.816 117.837 266.174 113.469C268.757 108.683 268.836 102.632 266.593 97.701C265.391 95.061 263.555 92.8834 261.295 91.0818C258.833 89.1197 256.044 87.62 253.396 85.9348C248.783 83.0001 243.828 78.7098 243.661 72.7944C243.52 67.7827 247.771 63.2514 252.603 62.4327C253.835 62.224 255.069 62.2517 256.289 62.5264C257.006 62.688 256.703 63.791 255.985 63.6293Z" fill="#3F3D56"/>
<path d="M336.431 30.7957L334.073 46.9496L321.181 47.2181V33.1243L336.431 30.7957Z" fill="#FFB6B6"/>
<path opacity="0.1" d="M336.431 30.7957L334.279 47.4579L321.387 47.7265V33.6326L336.431 30.7957Z" fill="black"/>
<path d="M8.82067 194.503H13.3864L13.3864 120.645H8.82067L8.82067 194.503Z" fill="#F2F2F2"/>
<path d="M27.0838 194.503H31.6496L31.6496 120.645H27.0838L27.0838 194.503Z" fill="#F2F2F2"/>
<path d="M55.5528 194.503H60.1185L60.1185 120.645H55.5528L55.5528 194.503Z" fill="#F2F2F2"/>
<path d="M64.1472 194.503H68.713L68.713 120.645H64.1472L64.1472 194.503Z" fill="#F2F2F2"/>
<path d="M6.40351 119.57L0.190358 87.302C-0.951893 81.3697 3.17295 75.7121 9.17035 74.9851L42.3926 70.9582C42.3926 70.9582 46.9583 108.29 46.9583 106.41C46.9583 104.53 92.2133 111.11 75.293 120.51C58.3728 129.91 12.715 127.225 6.40351 119.57Z" fill="#F2F2F2"/>
<path d="M80.4108 174.64L86.037 180.266L93.8065 184.285L93.0028 191.251L78.2675 189.643L76.392 185.893L76.9279 182.678L75.8562 177.587L80.4108 174.64Z" fill="#A0616A"/>
<path d="M91.9311 188.572L92.3912 182.661L108.274 190.179C108.274 190.179 109.504 193.662 105.674 194.198C101.844 194.734 76.392 194.734 76.392 193.394C76.392 192.055 75.6959 185.196 75.6959 185.196L91.1274 189.643L91.9311 188.572Z" fill="#2F2E41"/>
<path d="M60.1748 159.013L56.1053 165.85L54.1212 174.369L47.1717 175.304L45.1053 160.626L48.2796 157.885L51.5276 157.614L56.198 155.323L60.1748 159.013Z" fill="#A0616A"/>
<path d="M49.5049 173.606L55.3473 172.598L51.9667 189.842C51.9667 189.842 48.8933 191.891 47.4319 188.31C45.9705 184.73 39.71 160.06 41.0085 159.73C42.3069 159.401 48.7831 157.039 48.7831 157.039L48.2685 173.091L49.5049 173.606Z" fill="#2F2E41"/>
<path d="M42.5269 31.0748L41.7211 47.4579L54.6128 47.7265V33.6326L42.5269 31.0748Z" fill="#A0616A"/>
<path opacity="0.1" d="M42.5269 31.0748L41.7211 47.4579L54.6128 47.7265V33.6326L42.5269 31.0748Z" fill="black"/>
<path d="M20.7723 98.7557C20.7723 98.7557 14.8636 114.065 19.1608 120.242C23.458 126.419 43.6012 129.91 43.6012 129.91L51.927 137.699L73.9501 180.134L86.8418 177.18L68.5786 133.671C68.5786 133.671 57.8356 116.213 53.807 113.796C49.7784 111.379 42.2768 102.303 42.2768 102.303L20.7723 98.7557Z" fill="#2F2E41"/>
<path d="M57.2985 100.099L65.5717 105.958C65.5717 105.958 94.899 113.796 85.4989 132.059C76.0988 150.322 62.1329 163.482 62.1329 163.482L49.7784 156.499L69.653 128.568L34.7382 107.35L57.2985 100.099Z" fill="#2F2E41"/>
<path d="M132.497 77.8279C136.385 78.6101 139.132 81.2502 138.634 83.7243C138.136 86.1984 134.581 87.5693 130.692 86.7862C129.134 86.4948 127.669 85.8345 126.418 84.8606L109.988 81.3383L111.397 74.8444L127.81 77.9503C129.34 77.5358 130.947 77.4938 132.497 77.8279Z" fill="#A0616A"/>
<path d="M70.4532 119.792C73.2947 122.558 74.1707 126.267 72.4099 128.075C70.6491 129.883 66.919 129.106 64.0768 126.338C62.9263 125.248 62.0536 123.899 61.5316 122.402L49.64 110.529L54.3471 105.839L66.4494 117.352C67.9597 117.834 69.3326 118.671 70.4532 119.792Z" fill="#A0616A"/>
<path d="M53.9413 41.6835H37.2283L24.9352 50.0094L26.0095 82.7755C26.0095 82.7755 28.2558 91.0037 20.638 98.6215C16.0722 103.187 17.6837 105.873 17.6837 105.873L44.8098 108.022L61.0585 103.322L55.1499 88.5499L56.2242 83.9841C56.2242 83.9841 67.2358 76.1954 65.3557 68.1382C63.4757 60.0809 61.0585 43.4293 61.0585 43.4293L53.9413 41.6835Z" fill="#CCCCCC"/>
<path d="M42.2583 89.8928L30.1724 50.1437C30.1724 50.1437 23.9952 47.9951 21.3094 53.3666C18.6237 58.7381 22.002 79.284 22.002 79.284L36.0811 102.516L58.6414 119.705L64.2815 113.527L42.2583 89.8928Z" fill="#CCCCCC"/>
<path d="M93.2619 69.3922L60.8422 43.411C60.8422 43.411 54.5308 45.1258 55.3473 51.0756C56.1638 57.0253 70.5536 72.0747 70.5536 72.0747L95.2915 83.2983L123.617 84.7455L124.784 76.4626L93.2619 69.3922Z" fill="#CCCCCC"/>
<path d="M50.1812 38.7292C56.4111 38.7292 61.4614 33.6789 61.4614 27.449C61.4614 21.2192 56.4111 16.1689 50.1812 16.1689C43.9514 16.1689 38.9011 21.2192 38.9011 27.449C38.9011 33.6789 43.9514 38.7292 50.1812 38.7292Z" fill="#A0616A"/>
<path d="M367.179 120.645H362.614V194.503H367.179V120.645Z" fill="#F2F2F2"/>
<path d="M348.916 120.645H344.35V194.503H348.916V120.645Z" fill="#F2F2F2"/>
<path d="M320.447 120.645H315.881V194.503H320.447V120.645Z" fill="#F2F2F2"/>
<path d="M311.853 120.645H307.287V194.503H311.853V120.645Z" fill="#F2F2F2"/>
<path d="M369.597 119.57L375.81 87.302C376.952 81.3697 372.827 75.7121 366.83 74.9851L333.607 70.9582C333.607 70.9582 329.042 108.29 329.042 106.41C329.042 104.53 283.787 111.11 300.707 120.51C317.627 129.91 363.285 127.225 369.597 119.57Z" fill="#F2F2F2"/>
<path d="M295.589 174.64L289.963 180.266L282.194 184.285L282.997 191.251L297.733 189.643L299.608 185.893L299.072 182.678L300.144 177.587L295.589 174.64Z" fill="#FFB6B6"/>
<path d="M284.069 188.572L283.609 182.661L267.726 190.179C267.726 190.179 266.496 193.662 270.326 194.198C274.156 194.734 299.608 194.734 299.608 193.394C299.608 192.055 300.304 185.196 300.304 185.196L284.873 189.643L284.069 188.572Z" fill="#2F2E41"/>
<path d="M282.279 137.023L278.968 144.259L273.088 150.735L276.271 156.983L289.52 150.337L289.97 146.168L288.346 143.342L287.575 138.197L282.279 137.023Z" fill="#FFB6B6"/>
<path d="M276.341 154.098L273.848 148.719L261.585 161.304C261.585 161.304 261.647 164.998 265.423 164.164C269.199 163.33 293.053 154.454 292.586 153.199C292.119 151.943 290.379 145.273 290.379 145.273L277.468 154.822L276.341 154.098Z" fill="#2F2E41"/>
<path d="M355.228 98.7557C355.228 98.7557 361.136 114.065 356.839 120.242C352.542 126.419 332.399 129.91 332.399 129.91L324.073 137.699L302.05 180.134L289.158 177.18L307.421 133.671C307.421 133.671 318.164 116.213 322.193 113.796C326.222 111.379 333.723 102.303 333.723 102.303L355.228 98.7557Z" fill="#2F2E41"/>
<path d="M332.379 105.893L322.856 102.418C322.856 102.418 299.733 82.7493 290.054 100.866C280.374 118.983 277.489 137.954 277.489 137.954L290.258 144.147L301.935 111.916L339.241 128.575L332.379 105.893Z" fill="#2F2E41"/>
<path d="M278.688 116.045C276.135 119.079 275.631 122.857 277.563 124.481C279.494 126.105 283.129 124.962 285.682 121.926C286.719 120.727 287.453 119.297 287.824 117.756L298.478 104.762L293.329 100.562L282.429 113.219C280.974 113.849 279.691 114.818 278.688 116.045Z" fill="#FFB6B6"/>
<path d="M305.547 119.792C302.705 122.558 301.829 126.267 303.59 128.075C305.351 129.883 309.081 129.106 311.923 126.338C313.074 125.248 313.946 123.899 314.468 122.402L326.36 110.529L321.653 105.839L309.551 117.352C308.04 117.834 306.667 118.671 305.547 119.792Z" fill="#FFB6B6"/>
<path d="M322.059 41.6835H338.772L351.065 50.0094L349.991 82.7755C349.991 82.7755 347.744 91.0037 355.362 98.6215C359.928 103.187 358.316 105.873 358.316 105.873L331.19 108.022L314.942 103.322L320.85 88.5499L319.776 83.9841C319.776 83.9841 308.764 76.1954 310.644 68.1382C312.524 60.0809 314.942 43.4293 314.942 43.4293L322.059 41.6835Z" fill="#8761B4"/>
<path d="M333.742 89.8928L345.828 50.1437C345.828 50.1437 352.005 47.9951 354.691 53.3666C357.376 58.7381 353.998 79.284 353.998 79.284L339.919 102.516L317.359 119.705L311.719 113.527L333.742 89.8928Z" fill="#8761B4"/>
<path d="M304.114 84.9954L313.275 44.4722C313.275 44.4722 319.279 41.8797 322.349 47.0415C325.418 52.2034 323.544 72.9407 323.544 72.9407L311.193 97.1354L289.943 115.92L283.869 110.17L304.114 84.9954Z" fill="#8761B4"/>
<path d="M134.626 63.8367H131.068V193.968H134.626V63.8367Z" fill="#3F3D56"/>
<path d="M131.931 81.924L99.6521 55.499L100.468 54.8914L132.746 81.3164L131.931 81.924Z" fill="#3F3D56"/>
<path d="M133.609 66.1242H131.576C128.072 66.1242 125.222 63.2738 125.222 59.7701V42.4871C125.222 38.9834 128.072 36.1331 131.576 36.1331H133.609C137.113 36.1331 139.963 38.9834 139.963 42.4871V59.7701C139.963 63.2738 137.113 66.1242 133.609 66.1242Z" fill="#6C63FF"/>
<path d="M99.2974 64.8534C104.491 64.8534 108.701 57.912 108.701 49.3495C108.701 40.7869 104.491 33.8456 99.2974 33.8456C94.1037 33.8456 89.8934 40.7869 89.8934 49.3495C89.8934 57.912 94.1037 64.8534 99.2974 64.8534Z" fill="#6C63FF"/>
<path d="M133.101 58.2451C127.651 58.2451 117.343 57.5015 117.343 54.6869C117.343 53.3049 119.789 52.2798 124.612 51.6399L124.746 52.6476C119.533 53.3396 118.36 54.3776 118.36 54.6869C118.36 55.5496 123.563 57.2285 133.101 57.2285C142.639 57.2285 147.842 55.5496 147.842 54.6869C147.842 54.2525 146.047 53.1535 140.499 52.531L140.612 51.5203C144.374 51.9427 148.859 52.8348 148.859 54.6869C148.859 57.5015 138.551 58.2451 133.101 58.2451Z" fill="#3F3D56"/>
<path d="M255.607 193.968H259.165V63.8368H255.607L255.607 193.968Z" fill="#3F3D56"/>
<path d="M258.302 81.924L290.581 55.499L289.765 54.8914L257.487 81.3164L258.302 81.924Z" fill="#3F3D56"/>
<path d="M250.27 59.7701V42.4871C250.27 38.9834 253.12 36.1331 256.624 36.1331H258.657C262.161 36.1331 265.011 38.9834 265.011 42.4871V59.7701C265.011 63.2738 262.161 66.1242 258.657 66.1242H256.624C253.12 66.1242 250.27 63.2738 250.27 59.7701Z" fill="#6C63FF"/>
<path d="M290.936 64.8534C296.129 64.8534 300.34 57.912 300.34 49.3495C300.34 40.7869 296.129 33.8456 290.936 33.8456C285.742 33.8456 281.532 40.7869 281.532 49.3495C281.532 57.912 285.742 64.8534 290.936 64.8534Z" fill="#6C63FF"/>
<path d="M257.132 58.2452C251.682 58.2452 241.374 57.5016 241.374 54.6869C241.374 52.8348 245.859 51.9428 249.621 51.5203L249.734 52.531C244.186 53.1535 242.391 54.2526 242.391 54.6869C242.391 55.5497 247.594 57.2286 257.132 57.2286C266.67 57.2286 271.874 55.5497 271.874 54.6869C271.874 54.3777 270.7 53.3397 265.487 52.6477L265.621 51.64C270.444 52.2798 272.89 53.3049 272.89 54.6869C272.89 57.5016 262.582 58.2452 257.132 58.2452Z" fill="#3F3D56"/>
<path d="M327.802 37.3083C334.434 37.3083 339.811 31.9317 339.811 25.2993C339.811 18.6669 334.434 13.2902 327.802 13.2902C321.169 13.2902 315.792 18.6669 315.792 25.2993C315.792 31.9317 321.169 37.3083 327.802 37.3083Z" fill="#FFB6B6"/>
<path d="M328.76 9.15393C328.412 9.35677 327.947 9.04987 327.836 8.66324C327.724 8.27661 327.854 7.86611 327.983 7.48488L328.631 5.56575C329.09 4.20465 329.578 2.79599 330.573 1.76002C332.075 0.196386 334.463 -0.201398 336.612 0.0867809C339.371 0.456856 342.094 1.95126 343.378 4.42246C344.661 6.89365 344.115 10.3419 341.796 11.8836C345.101 15.6713 346.252 19.8926 346.071 24.916C345.889 29.9394 340.414 34.5625 336.844 38.1013C336.047 37.618 335.322 35.3532 335.761 34.5305C336.199 33.7077 335.571 32.7545 336.114 31.9966C336.657 31.2388 337.111 32.4455 336.562 31.692C336.216 31.2165 337.568 30.1225 337.053 29.838C334.563 28.4614 333.734 25.3574 332.17 22.9804C330.284 20.1133 327.055 18.1716 323.638 17.8495C321.756 17.6721 319.768 17.9934 318.225 19.0862C316.682 20.179 315.683 22.1317 316.041 23.9882C315.114 23.0474 314.653 21.6687 314.827 20.3597C315.001 19.0508 315.806 17.8403 316.947 17.1742C316.253 14.8817 316.847 12.2446 318.456 10.4706C320.065 8.69655 326.593 8.9987 328.942 9.46559" fill="#2F2E41"/>
<path d="M329.125 17.9191C332.236 18.255 334.483 20.9501 336.379 23.439C337.473 24.8735 338.618 26.4578 338.591 28.2613C338.563 30.0846 337.344 31.6486 336.761 33.3766C335.809 36.2011 336.737 39.5616 339.004 41.4969C336.764 41.922 334.342 40.2424 333.956 37.9954C333.505 35.3797 335.488 32.8551 335.253 30.2113C335.047 27.882 333.211 26.0894 331.651 24.3479C330.09 22.6063 328.625 20.2953 329.342 18.0698" fill="#2F2E41"/>
<path d="M44.3991 8.56428C44.3991 8.56428 39.8773 5.29854 35.858 12.3324C33.1124 17.1371 31.6562 26.2788 31.009 31.5906C30.7111 34.0352 31.9786 36.4028 34.1751 37.5166L48.4185 44.7386C48.4185 44.7386 43.1431 24.6417 50.4282 21.6272C57.7133 18.6127 57.4621 19.3663 57.4621 19.3663C57.4621 19.3663 63.2399 31.9268 55.7036 37.4535L61.9839 41.4728C61.9839 41.4728 66.2544 17.8591 58.4669 13.3373C50.6794 8.81549 52.4379 5.54975 44.3991 8.56428Z" fill="#2F2E41"/>
</svg>
