<?xml version="1.0" encoding="utf-8"?>
<!-- Generator: Adobe Illustrator 16.0.0, SVG Export Plug-In . SVG Version: 6.00 Build 0)  -->
<!DOCTYPE svg PUBLIC "-//W3C//DTD SVG 1.1//EN" "http://www.w3.org/Graphics/SVG/1.1/DTD/svg11.dtd">
<svg version="1.1" id="Layer_1" xmlns="http://www.w3.org/2000/svg" xmlns:xlink="http://www.w3.org/1999/xlink" x="0px" y="0px"
	 width="228.191px" height="57.318px" viewBox="0 0 228.191 57.318" enable-background="new 0 0 228.191 57.318"
	 xml:space="preserve">
<g>
	<defs>
		<rect id="SVGID_1_" y="0" width="228.191" height="57.318"/>
	</defs>
	<clipPath id="SVGID_2_">
		<use xlink:href="#SVGID_1_"  overflow="visible"/>
	</clipPath>
	<path clip-path="url(#SVGID_2_)" fill="#15345A" d="M4.798,8.608c2.785-1.917,22.151-6.051,31.213-2.441
		c4.429,1.763,5.092,3.747,5.092,3.747s0.02,0.068,0-1.841c-0.04-3.645-5.464-5.665-5.464-5.665
		c-2.797-2.407-6.497-2.209-12.566-2.401C19.27-0.114,10.025,1.519,10.025,1.519C0.481,2.711,2.342,7.474,2.342,7.474
		c-2.797,1.753-2.033,4.798-2.033,4.798S1.502,10.874,4.798,8.608"/>
	<path clip-path="url(#SVGID_2_)" fill="#15345A" d="M1.002,18.2c0.047-0.314-0.383-2.625-0.512-3.491
		c-0.209-1.388,2.175-1.479,2.175-1.479s-1.421-0.521-1.774-0.447c-0.409,0.084-0.998,0.514-0.874,1.334
		c0.099,0.688,0.414,1.753,0.614,2.594C0.635,16.728,0.983,18.319,1.002,18.2"/>
	<path clip-path="url(#SVGID_2_)" fill="#15345A" d="M44.976,53.524c-4.729-22.351-16.529-38.032-16.529-38.032L44.976,53.524z"/>
	<path clip-path="url(#SVGID_2_)" fill="#15345A" d="M44.318,41.072c0.368-10.602-7.165-31.604-7.165-31.604
		C35.826,10.985,44.318,41.072,44.318,41.072"/>
	<path clip-path="url(#SVGID_2_)" fill="#15345A" d="M1.692,25.859l1.18-1.694l0.912-1.317c0,0,0.877-2.51-2.092-1.926
		c-1.207,0.237-2.308,2.409-0.021,4.912C1.679,25.843,1.686,25.85,1.692,25.859"/>
	<path clip-path="url(#SVGID_2_)" fill="#15345A" d="M29.331,37.161c-1.061-1.883-1.981-3.546-2.555-4.591
		c-3.197-5.806-7.414-10.488-10.7-16.48c-3.794-6.915-6.026-6.776-6.026-6.776c-5.257-1.565-7.301,3.81-7.301,3.81
		c2.622-3.67,8.85-2.434,9.947-1.524c1.443,1.2,5.502,9.566,7.899,13.662c1.849,3.164-0.753,8.172-1.49,9.468
		c-0.919,1.228-1.997,2.31-3.211,2.94c-3.113,1.615-3.607-0.132-4.266-1.651c0.985,0.613,1.979,0.793,1.979,0.793
		s-2.772-1.543-3.566-4.143c-0.825-2.701-3.127-4.951-3.127-4.951c0.049,0.046,0.157,0.165,0.303,0.33
		c-0.091-0.098-0.174-0.194-0.274-0.295c0,0,1.165,3.129-1.273,3.195c0,0-4.31,0.024-4.601,0.904
		c-0.272,0.82,0.289,1.406,1.834,1.523c0,0-2.34,3.126,0.727,7.083c0,0,0.656,1.29-0.561,2.898c-0.97,1.288-0.672,2.363-0.255,2.941
		c0.418,0.82,1.381,2.242,3.057,2.291c0.988,0.031,2.759,0.457,3.825,0.972c0.327,0.154,1.547,0.24,5.122,7.756
		c0,0-0.672-4.635-3.786-8.286c3.361-1.382,12.147-5.29,15.418-9.648c0.692-0.925,1.101-1.586,1.304-2.048
		c0.671,1.442,1.459,3.03,2.29,4.649c0.317,0.979,1.114,4.843-1.254,7.039c-6.11,5.664-6.485,8.124-6.485,8.124
		c4.772-5.442,9.626-7.246,11.672-7.795c1.724,3.135,3.035,5.416,3.035,5.416C36.017,49.388,32.228,42.141,29.331,37.161
		 M9.717,32.914c0.014,0.306,0.069,0.584,0.14,0.846c-0.814-0.717-1.695-1.354-1.992-1.564c0.476-0.413,1.264-1.467,0.043-3.281
		C8.694,29.977,9.659,31.555,9.717,32.914 M8.531,40.782c-1.015,0.22-1.838-0.178-2.045-0.219c-0.206-0.044,3.089-4.23-3.659-2.166
		c0.156-0.162,0.326-0.43,1.735-1c1.39-0.565,2.171-0.424,2.933-0.141c0.795,0.297,2.676,1.8,2.633,2.553
		C10.087,40.563,9.471,40.577,8.531,40.782"/>
	<path clip-path="url(#SVGID_2_)" fill="#15345A" d="M9.804,23.591c1.963,0.596,5.951-1.723,5.886-2.485l0.011,0.005
		c-0.002-0.005-0.006-0.009-0.009-0.013c-0.006-0.059-0.032-0.111-0.093-0.148c-0.026-0.017-0.053-0.028-0.081-0.045
		c-0.797-0.904-2.052-2.329-3.562-3.014c-1.631-0.74-3.004-0.383-3.881-0.284c-0.78,0.088-2.406,0.434-2.983,0.949
		c-0.897,0.801,0.653,1.685,1.171,1.652c0.878-0.055,3.055-0.762,3.139-0.776c0.158-0.021,0.52-0.062,1.046-0.028
		c-0.685,0.033-1.348,0.159-1.975,0.408c-2.722,1.074-1.559,1.862-1.176,2.411c1.509,2.166,4.227,2.676,4.845,2.606
		c0.6-0.066-0.726-0.314-1.442-0.527C9.517,23.952,8.711,23.258,9.804,23.591"/>
	<path clip-path="url(#SVGID_2_)" fill="#15345A" d="M61.457,12.675c-1.897,0-2.587-0.899-2.587-2.31
		c0-1.293,0.799-2.438,2.487-2.438c1.086,0,1.983,0.345,1.983,0.345v3.683h1.274v0.72H61.457z M62.451,8.876
		c0,0-0.485-0.228-1.193-0.228c-0.919,0-1.471,0.652-1.471,1.628c0,1.125,0.522,1.679,1.797,1.679h0.867V8.876z M60.555,6.142
		c0.288,0,0.514,0.217,0.514,0.513c0,0.286-0.217,0.514-0.514,0.514c-0.294,0-0.51-0.228-0.51-0.514
		C60.045,6.371,60.271,6.142,60.555,6.142 M61.987,6.142c0.275,0,0.514,0.217,0.514,0.513c0,0.277-0.226,0.514-0.514,0.514
		c-0.285,0-0.512-0.228-0.512-0.514C61.476,6.371,61.703,6.142,61.987,6.142"/>
	<path clip-path="url(#SVGID_2_)" fill="#15345A" d="M63.626,12.31c0-0.215,0.397-0.354,0.594-0.354h1.422V8.037h0.908v3.919h1.281
		v0.72h-3.611C64.024,12.676,63.626,12.547,63.626,12.31 M65.375,13.574c0.288,0,0.513,0.228,0.513,0.522
		c0,0.277-0.225,0.515-0.513,0.515c-0.287,0-0.513-0.238-0.513-0.515C64.862,13.812,65.088,13.574,65.375,13.574 M66.807,13.574
		c0.276,0,0.512,0.228,0.512,0.522c0,0.277-0.227,0.515-0.512,0.515c-0.287,0-0.514-0.238-0.514-0.515
		C66.292,13.812,66.52,13.574,66.807,13.574"/>
	<path clip-path="url(#SVGID_2_)" fill="#15345A" d="M69.116,11.747c-0.149,0.533-0.603,0.928-1.422,0.928h-0.256
		c-0.196,0-0.594-0.128-0.594-0.365c0-0.216,0.398-0.355,0.594-0.355h0.109c0.652,0,1.123-0.306,1.123-1.619
		c0-1.274,0.84-2.408,2.468-2.408c1.413,0,2.114,0.798,2.114,2.211v1.816h0.999v0.72h-2.855
		C69.958,12.675,69.442,12.302,69.116,11.747 M72.364,10.287c0-1.175-0.485-1.639-1.303-1.639c-0.919,0-1.471,0.652-1.471,1.639
		c0,1.125,0.534,1.668,1.795,1.668h0.979V10.287z"/>
	<path clip-path="url(#SVGID_2_)" fill="#15345A" d="M73.854,12.675c-0.196,0-0.59-0.128-0.59-0.365c0-0.216,0.394-0.355,0.59-0.355
		h1.423V5.717h0.908v6.958H73.854z"/>
	<polygon clip-path="url(#SVGID_2_)" fill="#15345A" points="77.873,5.717 78.779,5.717 78.779,11.956 80.055,11.956 80.055,12.675 
		77.873,12.675 	"/>
	<path clip-path="url(#SVGID_2_)" fill="#15345A" d="M79.661,12.675c-0.2,0-0.594-0.129-0.594-0.365
		c0-0.216,0.394-0.355,0.594-0.355h0.217c1.096,0,2.014-0.196,2.704-0.523c-0.69-0.652-1.361-1.382-2.36-1.708l0.08-0.632
		c0.761-0.583,1.856-1.185,2.853-1.185c1.34,0,1.895,0.732,1.895,1.531c0,0.691-0.414,1.441-1.184,2.043
		c0.414,0.287,0.867,0.474,1.421,0.474h0.463v0.72h-0.582c-0.84,0-1.461-0.304-2.002-0.74c-0.852,0.453-1.966,0.74-3.317,0.74
		H79.661z M83.292,11.019c0.553-0.425,0.858-0.947,0.858-1.462c0-0.532-0.335-0.967-1.094-0.967c-0.68,0-1.471,0.483-1.905,0.789
		C82.009,9.706,82.631,10.425,83.292,11.019"/>
	<path clip-path="url(#SVGID_2_)" fill="#15345A" d="M85.356,12.675c-0.198,0-0.594-0.128-0.594-0.365
		c0-0.216,0.396-0.355,0.594-0.355h1.422V5.717h0.907v6.958H85.356z"/>
	<rect x="89.373" y="5.716" clip-path="url(#SVGID_2_)" fill="#15345A" width="0.911" height="6.958"/>
	<path clip-path="url(#SVGID_2_)" fill="#15345A" d="M98.052,12.675c-1.788,0-2.499-0.809-2.579-2.082h-0.285
		c-0.702,0-0.928,0.425-0.769,1.432l0.514,3.219h-0.889l-0.495-3.14c-0.206-1.334,0.277-2.232,1.686-2.232h0.279
		c0.178-1.085,0.996-1.944,2.416-1.944c1.426,0,2.114,0.798,2.114,2.211v2.536H98.052z M99.156,10.287
		c0-1.175-0.484-1.639-1.302-1.639c-0.908,0-1.469,0.652-1.469,1.639c0,1.125,0.532,1.668,1.795,1.668h0.976V10.287z"/>
	<path clip-path="url(#SVGID_2_)" fill="#15345A" d="M101.301,15.025l0.059-0.769c0,0,0.829,0.197,1.578,0.197
		c1.075,0,1.887-0.405,1.887-1.539v-0.239h-0.997c-1.896,0-2.589-0.899-2.589-2.309c0-1.293,0.802-2.438,2.489-2.438
		c1.088,0,1.985,0.345,1.985,0.345v3.683h1.272v0.719h-1.272v0.189c0,1.155-0.75,2.309-2.871,2.309
		C102.08,15.173,101.301,15.025,101.301,15.025 M104.825,8.877c0,0-0.485-0.229-1.196-0.229c-0.917,0-1.47,0.652-1.47,1.629
		c0,1.125,0.522,1.679,1.796,1.679h0.87V8.877z"/>
	<path clip-path="url(#SVGID_2_)" fill="#15345A" d="M106,12.31c0-0.215,0.395-0.354,0.593-0.354h1.42V8.037h0.908v3.919h1.283v0.72
		h-3.611C106.395,12.675,106,12.546,106,12.31 M107.758,6.142c0.285,0,0.514,0.217,0.514,0.513c0,0.286-0.22,0.514-0.514,0.514
		c-0.297,0-0.514-0.228-0.514-0.514C107.244,6.371,107.47,6.142,107.758,6.142 M109.188,6.142c0.277,0,0.512,0.217,0.512,0.513
		c0,0.277-0.227,0.514-0.512,0.514c-0.288,0-0.514-0.228-0.514-0.514C108.675,6.371,108.9,6.142,109.188,6.142"/>
	<path clip-path="url(#SVGID_2_)" fill="#15345A" d="M109.812,12.675c-0.199,0-0.594-0.128-0.594-0.365
		c0-0.216,0.395-0.355,0.594-0.355h2.951c-0.029-1.933-0.858-2.883-2.589-3.376V7.907l3.743-2.349v0.918l-2.685,1.638
		c1.49,0.622,2.369,1.668,2.427,3.841h0.732v0.72H109.812z"/>
	<path clip-path="url(#SVGID_2_)" fill="#15345A" d="M113.997,12.675c-0.198,0-0.594-0.128-0.594-0.365
		c0-0.216,0.396-0.355,0.594-0.355h1.046c0.346,0,0.572,0.049,0.572,0.049c-0.484-0.305-0.729-0.828-0.729-1.668
		c0-1.274,0.839-2.408,2.467-2.408c1.411,0,2.113,0.798,2.113,2.211v2.536H113.997z M118.576,10.287
		c0-1.175-0.482-1.639-1.303-1.639c-0.918,0-1.471,0.652-1.471,1.639c0,1.125,0.533,1.668,1.797,1.668h0.977V10.287z"/>
	<path clip-path="url(#SVGID_2_)" fill="#15345A" d="M126.524,5.717h0.907v6.377c0,2.023-1.008,2.863-2.438,2.863
		c-1.353,0-2.419-0.731-2.419-2.755c0-0.652,0.079-1.292,0.235-1.876l0.94-0.177c-0.181,0.652-0.269,1.324-0.269,1.963
		c0,1.69,0.82,2.124,1.6,2.124c0.802,0,1.442-0.493,1.442-2.062V5.717z"/>
	<path clip-path="url(#SVGID_2_)" fill="#15345A" d="M128.37,4.542l0.82-0.248c0.066,0.068,0.376,0.346,0.769,0.346
		c0.436,0,0.741-0.295,0.81-0.346v0.633c-0.079,0.05-0.365,0.276-0.867,0.276c-0.414,0-0.702-0.207-0.771-0.267l-0.761,0.236V4.542z
		 M129.122,5.716h0.907v6.958h-0.907V5.716z"/>
	<path clip-path="url(#SVGID_2_)" fill="#15345A" d="M133.219,11.956h3.158c-0.031-1.816-0.74-2.813-2.488-3.347l0.235-0.76
		c2.074,0.632,3.091,1.788,3.151,4.107h0.67v0.72h-4.727V11.956z"/>
	<path clip-path="url(#SVGID_2_)" fill="#15345A" d="M137.551,12.676c-0.197,0-0.591-0.129-0.591-0.366
		c0-0.215,0.394-0.354,0.591-0.354h0.435c0.711,0,1.017-0.316,1.017-1.352V8.628h0.908v1.797c0,1.016,0.041,1.599,0.828,1.599
		c0.604,0,1.028-0.326,1.028-1.59V8.233h0.889v2.527c0,1.037,0.385,1.195,1.46,1.195h0.317c0.048-0.424,0.077-1.006,0.077-1.373
		c0-1.075-0.137-2.004-0.324-2.722l0.888-0.15c0.197,0.741,0.347,1.718,0.347,2.794c0,0.671-0.061,1.51-0.159,2.171h-1.116
		c-1.241,0-1.775-0.167-2.051-0.79c-0.158,0.416-0.623,0.859-1.511,0.859c-0.661,0-1.138-0.344-1.273-0.849
		c-0.179,0.485-0.574,0.78-1.324,0.78H137.551z M141.43,6.161c0.288,0,0.515,0.227,0.515,0.514c0,0.286-0.227,0.523-0.515,0.523
		c-0.285,0-0.512-0.227-0.512-0.523C140.918,6.396,141.145,6.161,141.43,6.161 M142.16,5.036c0.286,0,0.515,0.228,0.515,0.523
		c0,0.277-0.229,0.514-0.515,0.514c-0.284,0-0.513-0.228-0.513-0.514S141.876,5.036,142.16,5.036 M142.882,6.161
		c0.287,0,0.522,0.227,0.522,0.514c0,0.286-0.235,0.523-0.522,0.523c-0.276,0-0.513-0.227-0.513-0.523
		C142.369,6.396,142.605,6.161,142.882,6.161"/>
	<rect x="146.992" y="5.716" clip-path="url(#SVGID_2_)" fill="#15345A" width="0.905" height="6.958"/>
	<path clip-path="url(#SVGID_2_)" fill="#15345A" d="M148.479,15.064l0.102-0.74c0.304,0.099,0.631,0.168,0.995,0.168
		c0.819,0,1.314-0.396,1.314-1.687V8.036h0.907v4.689c0,1.402-0.512,2.487-2.289,2.487
		C149.144,15.212,148.768,15.153,148.479,15.064"/>
	<path clip-path="url(#SVGID_2_)" fill="#15345A" d="M160.141,11.955h1.273v0.72h-1.304c-0.149,1.522-1.026,2.281-2.577,2.281
		c-1.352,0-2.447-0.73-2.447-2.754c0-0.652,0.08-1.293,0.235-1.876l0.937-0.177c-0.176,0.651-0.264,1.324-0.264,1.962
		c0,1.69,0.849,2.124,1.629,2.124c0.945,0,1.608-0.493,1.608-2.004V8.036h0.909V11.955z M157.522,8.006
		c0.296,0,0.544,0.238,0.544,0.532c0,0.297-0.248,0.545-0.544,0.545c-0.286,0-0.532-0.248-0.532-0.545
		C156.99,8.253,157.236,8.006,157.522,8.006"/>
	<path clip-path="url(#SVGID_2_)" fill="#15345A" d="M161.028,12.675c-0.197,0-0.592-0.129-0.592-0.365
		c0-0.216,0.395-0.355,0.592-0.355h1.422V8.036h0.909v4.639H161.028z M162.844,13.544c0.297,0,0.535,0.227,0.535,0.534
		c0,0.295-0.238,0.532-0.535,0.532c-0.295,0-0.522-0.237-0.522-0.532C162.321,13.782,162.549,13.544,162.844,13.544"/>
	<path clip-path="url(#SVGID_2_)" fill="#15345A" d="M166.547,11.956h3.158c-0.029-1.816-0.74-2.813-2.486-3.347l0.235-0.76
		c2.073,0.632,3.093,1.788,3.151,4.107h0.671v0.72h-4.729V11.956z"/>
	<path clip-path="url(#SVGID_2_)" fill="#15345A" d="M172.559,11.747c-0.146,0.533-0.603,0.928-1.421,0.928h-0.258
		c-0.196,0-0.59-0.128-0.59-0.365c0-0.216,0.394-0.355,0.59-0.355h0.109c0.652,0,1.126-0.306,1.126-1.619
		c0-1.274,0.838-2.408,2.466-2.408c1.413,0,2.113,0.798,2.113,2.211v1.816h0.999v0.72h-2.854
		C173.4,12.675,172.885,12.302,172.559,11.747 M175.807,10.287c0-1.175-0.484-1.639-1.303-1.639c-0.916,0-1.472,0.652-1.472,1.639
		c0,1.125,0.534,1.668,1.799,1.668h0.976V10.287z"/>
	<path clip-path="url(#SVGID_2_)" fill="#15345A" d="M176.705,12.31c0-0.216,0.396-0.354,0.594-0.354h3.683
		c0.05-0.348,0.067-0.692,0.067-1.018c0-1.49-0.541-2.221-2.151-2.221c-0.384,0-0.82,0.041-1.185,0.1V8.104
		c0.324-0.058,0.829-0.107,1.253-0.107c2.183,0,2.991,0.996,2.991,2.883c0,0.305-0.029,0.67-0.066,1.076h0.768v0.719h-5.359
		C177.101,12.675,176.705,12.547,176.705,12.31"/>
	<path clip-path="url(#SVGID_2_)" fill="#15345A" d="M182.263,12.675c-0.197,0-0.591-0.128-0.591-0.365
		c0-0.216,0.394-0.355,0.591-0.355h1.047c0.347,0,0.572,0.049,0.572,0.049c-0.48-0.305-0.728-0.828-0.728-1.668
		c0-1.274,0.836-2.408,2.465-2.408c1.413,0,2.116,0.798,2.116,2.211v2.536H182.263z M186.844,10.287
		c0-1.175-0.483-1.639-1.303-1.639c-0.919,0-1.47,0.652-1.47,1.639c0,1.125,0.531,1.668,1.795,1.668h0.978V10.287z"/>
	<path clip-path="url(#SVGID_2_)" fill="#15345A" d="M194.357,12.675c-2.487,0-3.447-0.997-3.447-2.872
		c0-0.603,0.139-1.254,0.316-1.648l0.978-0.159c-0.235,0.464-0.382,1.145-0.382,1.699c0,1.5,0.591,2.26,2.654,2.26h1.679V8.037
		h0.906v4.639H194.357z M193.539,6.142c0.285,0,0.513,0.217,0.513,0.513c0,0.286-0.219,0.514-0.513,0.514
		c-0.298,0-0.515-0.228-0.515-0.514C193.024,6.371,193.25,6.142,193.539,6.142 M194.97,6.142c0.275,0,0.512,0.217,0.512,0.513
		c0,0.277-0.226,0.514-0.512,0.514c-0.288,0-0.515-0.228-0.515-0.514C194.455,6.371,194.682,6.142,194.97,6.142"/>
	<rect x="198.751" y="5.716" clip-path="url(#SVGID_2_)" fill="#15345A" width="0.908" height="6.958"/>
	<path clip-path="url(#SVGID_2_)" fill="#15345A" d="M199.51,15.064l0.102-0.74c0.305,0.099,0.631,0.168,0.995,0.168
		c0.819,0,1.313-0.396,1.313-1.687V8.036h0.907v4.689c0,1.402-0.514,2.487-2.289,2.487C200.171,15.212,199.798,15.153,199.51,15.064
		"/>
	<path clip-path="url(#SVGID_2_)" fill="#15345A" d="M204.054,11.956h3.158c-0.029-1.816-0.74-2.813-2.489-3.347l0.238-0.76
		c2.142,0.652,3.148,1.857,3.148,4.335v0.492h-4.056V11.956z"/>
	<polygon clip-path="url(#SVGID_2_)" fill="#15345A" points="209.571,5.717 210.48,5.717 210.48,11.956 211.752,11.956 
		211.752,12.675 209.571,12.675 	"/>
	<path clip-path="url(#SVGID_2_)" fill="#15345A" d="M211.358,12.675c-0.2,0-0.594-0.129-0.594-0.365
		c0-0.216,0.394-0.355,0.594-0.355h1.42V8.036h0.907v3.919h1.285v0.72H211.358z M213.225,13.544c0.294,0,0.532,0.227,0.532,0.534
		c0,0.295-0.238,0.532-0.532,0.532c-0.297,0-0.522-0.237-0.522-0.532C212.702,13.782,212.928,13.544,213.225,13.544"/>
	<path clip-path="url(#SVGID_2_)" fill="#15345A" d="M214.576,12.675c-0.197,0-0.591-0.128-0.591-0.365
		c0-0.216,0.394-0.355,0.591-0.355h1.047c0.346,0,0.572,0.049,0.572,0.049c-0.484-0.305-0.731-0.828-0.731-1.668
		c0-1.274,0.841-2.408,2.469-2.408c1.412,0,2.113,0.798,2.113,2.211v2.536H214.576z M219.158,10.287
		c0-1.175-0.485-1.639-1.303-1.639c-0.92,0-1.473,0.652-1.473,1.639c0,1.125,0.532,1.668,1.797,1.668h0.979V10.287z"/>
	<polygon clip-path="url(#SVGID_2_)" fill="#15345A" points="67.539,27.631 66.641,27.631 66.652,20.993 63.688,25.933 
		63.079,25.933 60.089,20.954 60.114,27.631 59.215,27.631 59.215,19.015 59.911,19.015 63.383,24.843 66.854,19.015 67.539,19.015 
			"/>
	<path clip-path="url(#SVGID_2_)" fill="#15345A" d="M75.421,24.704c0,1.761-1.356,3.117-3.104,3.117
		c-1.76,0-3.116-1.356-3.116-3.117c0-1.735,1.356-3.079,3.116-3.079C74.064,21.625,75.421,22.968,75.421,24.704 M74.561,24.704
		c0-1.255-0.965-2.281-2.244-2.281c-1.28,0-2.243,1.026-2.243,2.281c0,1.293,0.963,2.331,2.243,2.331
		C73.596,27.035,74.561,25.997,74.561,24.704"/>
	<path clip-path="url(#SVGID_2_)" fill="#15345A" d="M82.39,24.259v3.372h-0.86v-3.333c0-1.216-0.724-1.913-1.787-1.913
		c-0.749,0-1.508,0.393-2.016,1.091v4.155h-0.86v-8.996h0.86v3.838c0.546-0.556,1.307-0.885,2.168-0.885
		C81.364,21.588,82.39,22.614,82.39,24.259"/>
	<path clip-path="url(#SVGID_2_)" fill="#15345A" d="M89.624,27.63h-0.859v-0.646c-0.533,0.507-1.244,0.811-2.118,0.811
		c-1.671,0-3.028-1.369-3.028-3.092c0-1.71,1.357-3.079,3.028-3.079c0.874,0,1.585,0.304,2.118,0.812v-0.659h0.859V27.63z
		 M88.765,25.972v-2.523c-0.493-0.709-1.205-1.063-2.003-1.063c-1.293,0-2.267,1.063-2.267,2.318c0,1.268,0.974,2.33,2.267,2.33
		C87.56,27.034,88.272,26.681,88.765,25.972"/>
	<path clip-path="url(#SVGID_2_)" fill="#15345A" d="M101.016,24.259v3.372h-0.861v-3.333c0-1.216-0.633-1.913-1.686-1.913
		c-0.722,0-1.407,0.343-1.873,1.126c0.049,0.23,0.074,0.484,0.074,0.748v3.372h-0.86v-3.333c0-1.216-0.648-1.913-1.686-1.913
		c-0.697,0-1.342,0.354-1.811,1.063v4.183h-0.862v-5.853h0.862v0.669c0.479-0.544,1.076-0.859,1.964-0.859
		c0.86,0,1.582,0.392,2.002,1.088c0.57-0.696,1.303-1.088,2.342-1.088C100.029,21.588,101.016,22.614,101.016,24.259"/>
	<path clip-path="url(#SVGID_2_)" fill="#15345A" d="M112.156,24.259v3.372h-0.862v-3.333c0-1.216-0.635-1.913-1.687-1.913
		c-0.722,0-1.406,0.343-1.875,1.126c0.05,0.23,0.076,0.484,0.076,0.748v3.372h-0.861v-3.333c0-1.216-0.647-1.913-1.686-1.913
		c-0.697,0-1.342,0.354-1.811,1.063v4.183h-0.863v-5.853h0.863v0.669c0.482-0.544,1.076-0.859,1.963-0.859
		c0.861,0,1.585,0.392,2.003,1.088c0.569-0.696,1.303-1.088,2.343-1.088C111.167,21.588,112.156,22.614,112.156,24.259"/>
	<path clip-path="url(#SVGID_2_)" fill="#15345A" d="M119.274,25.046l-0.049-0.024v0.024h-4.955
		c0.127,1.114,0.927,2.002,2.192,2.002c0.811,0,1.431-0.343,1.698-0.9h0.938c-0.344,1.001-1.368,1.648-2.661,1.648
		c-1.786,0-3.041-1.357-3.041-3.092c0-1.723,1.255-3.079,3.041-3.079c1.672,0,2.837,1.293,2.853,3.053
		C119.29,24.806,119.29,24.93,119.274,25.046 M114.271,24.376h4.146c-0.104-1.18-0.851-2.004-2.002-2.004
		C115.184,22.372,114.397,23.272,114.271,24.376"/>
	<path clip-path="url(#SVGID_2_)" fill="#15345A" d="M126.358,27.631h-0.862v-0.646c-0.53,0.506-1.241,0.798-2.115,0.798
		c-1.674,0-3.028-1.369-3.028-3.079c0-1.71,1.354-3.079,3.028-3.079c0.874,0,1.585,0.292,2.115,0.798v-3.788h0.862V27.631z
		 M125.496,25.959v-2.511c-0.494-0.72-1.202-1.076-1.999-1.076c-1.294,0-2.27,1.066-2.27,2.332c0,1.255,0.976,2.317,2.27,2.317
		C124.294,27.021,125.002,26.667,125.496,25.959"/>
	<path clip-path="url(#SVGID_2_)" fill="#15345A" d="M133.54,24.951c0.452-0.221,0.713-0.644,0.713-1.169
		c0-0.834-0.684-1.373-1.743-1.373h-2.256v5.301h2.301c1.173,0,1.961-0.594,1.961-1.478
		C134.516,25.604,134.163,25.142,133.54,24.951 M132.366,24.708h-1.419v-1.665h1.51c0.693,0,1.123,0.307,1.123,0.799
		C133.58,24.394,133.14,24.708,132.366,24.708 M130.947,25.344h1.607c0.811,0,1.274,0.301,1.274,0.829
		c0,0.548-0.508,0.902-1.29,0.902h-1.592V25.344z"/>
	<path clip-path="url(#SVGID_2_)" fill="#15345A" d="M135.702,22.386c-0.241,0-0.434,0.187-0.434,0.427
		c0,0.242,0.185,0.427,0.434,0.427c0.252,0,0.441-0.185,0.441-0.427C136.144,22.573,135.951,22.386,135.702,22.386"/>
	<rect x="135.365" y="24.055" clip-path="url(#SVGID_2_)" fill="#15345A" width="0.673" height="3.654"/>
	<path clip-path="url(#SVGID_2_)" fill="#15345A" d="M138.961,23.945c-0.453,0-0.883,0.15-1.213,0.426v-0.315h-0.674v3.654h0.674
		v-2.535c0.28-0.374,0.699-0.599,1.123-0.599c0.609,0,0.986,0.409,0.986,1.065v2.069h0.674v-2.093
		C140.531,24.617,139.901,23.945,138.961,23.945"/>
	<path clip-path="url(#SVGID_2_)" fill="#15345A" d="M144.721,24.501v3.129h-0.902v-8.616h3.207c1.939,0,3.281,1.052,3.281,2.749
		c0,1.408-0.937,2.384-2.381,2.661l2.763,3.206h-1.128l-2.7-3.129H144.721z M147.001,23.678c1.405,0,2.407-0.723,2.407-1.914
		c0-1.204-1.002-1.926-2.407-1.926h-2.28v3.84H147.001z"/>
	<path clip-path="url(#SVGID_2_)" fill="#15345A" d="M157.087,27.63h-0.862v-0.646c-0.53,0.507-1.241,0.811-2.116,0.811
		c-1.672,0-3.028-1.369-3.028-3.092c0-1.71,1.356-3.079,3.028-3.079c0.875,0,1.586,0.304,2.116,0.812v-0.659h0.862V27.63z
		 M156.225,25.972v-2.523c-0.494-0.709-1.203-1.063-2.002-1.063c-1.294,0-2.268,1.063-2.268,2.318c0,1.268,0.974,2.33,2.268,2.33
		C155.021,27.034,155.73,26.681,156.225,25.972"/>
	<path clip-path="url(#SVGID_2_)" fill="#15345A" d="M159.33,25.818c0.176,0.798,0.799,1.279,1.938,1.279
		c0.949,0,1.597-0.405,1.597-1.038c0-0.519-0.419-0.835-1.013-0.924l-1.332-0.229c-0.976-0.152-1.734-0.582-1.734-1.57
		c0-1.051,0.939-1.737,2.344-1.737c1.189,0,2.433,0.52,2.534,1.864h-0.799c-0.115-0.761-0.747-1.166-1.735-1.166
		c-0.925,0-1.497,0.405-1.497,0.975c0,0.444,0.317,0.784,1.155,0.91l1.164,0.203c0.85,0.14,1.749,0.508,1.749,1.624
		c0,1.14-1.026,1.811-2.457,1.811c-1.519,0-2.534-0.671-2.724-2.002H159.33z"/>
	<path clip-path="url(#SVGID_2_)" fill="#15345A" d="M170.796,24.259v3.372h-0.862v-3.333c0-1.216-0.723-1.913-1.785-1.913
		c-0.746,0-1.509,0.393-2.014,1.091v4.155h-0.862v-8.996h0.862v3.838c0.543-0.556,1.305-0.885,2.167-0.885
		C169.771,21.588,170.796,22.614,170.796,24.259"/>
	<path clip-path="url(#SVGID_2_)" fill="#15345A" d="M172.381,19.56c0-0.329,0.268-0.582,0.595-0.582
		c0.342,0,0.609,0.253,0.609,0.582c0,0.341-0.268,0.582-0.609,0.582C172.648,20.142,172.381,19.9,172.381,19.56 M173.405,27.63
		h-0.859v-5.854h0.859V27.63z"/>
	<path clip-path="url(#SVGID_2_)" fill="#15345A" d="M181.01,27.631h-0.861v-0.646c-0.533,0.506-1.241,0.798-2.118,0.798
		c-1.671,0-3.027-1.369-3.027-3.079c0-1.71,1.356-3.079,3.027-3.079c0.877,0,1.585,0.292,2.118,0.798v-3.788h0.861V27.631z
		 M180.148,25.959v-2.511c-0.495-0.72-1.206-1.076-2.003-1.076c-1.293,0-2.269,1.066-2.269,2.332c0,1.255,0.976,2.317,2.269,2.317
		C178.942,27.021,179.653,26.667,180.148,25.959"/>
	<path clip-path="url(#SVGID_2_)" fill="#15345A" d="M60.945,37.842l-1.113,2.508h-0.963l3.915-8.68h0.85l3.916,8.68h-0.963
		l-1.117-2.508H60.945z M63.202,32.746l-1.887,4.271h3.787L63.202,32.746z"/>
	<rect x="68.678" y="31.354" clip-path="url(#SVGID_2_)" fill="#15345A" width="0.86" height="8.996"/>
	<polygon clip-path="url(#SVGID_2_)" fill="#15345A" points="82.943,40.349 82.043,40.349 82.057,33.71 79.091,38.651 
		78.482,38.651 75.494,33.672 75.518,40.349 74.62,40.349 74.62,31.733 75.317,31.733 78.788,37.563 82.257,31.733 82.943,31.733 	
		"/>
	<path clip-path="url(#SVGID_2_)" fill="#15345A" d="M90.609,40.35h-0.862v-0.647c-0.532,0.509-1.241,0.812-2.115,0.812
		c-1.674,0-3.028-1.366-3.028-3.089c0-1.713,1.354-3.08,3.028-3.08c0.874,0,1.583,0.304,2.115,0.811v-0.659h0.862V40.35z
		 M89.747,38.69v-2.521c-0.493-0.71-1.203-1.064-2.002-1.064c-1.291,0-2.267,1.064-2.267,2.32c0,1.266,0.976,2.328,2.267,2.328
		C88.544,39.753,89.254,39.398,89.747,38.69"/>
	<polygon clip-path="url(#SVGID_2_)" fill="#15345A" points="93.37,38.741 93.37,40.349 92.51,40.349 92.51,31.354 93.37,31.354 
		93.37,37.6 96.668,34.496 97.781,34.496 95.234,36.953 98.262,40.349 97.135,40.349 94.613,37.551 	"/>
	<path clip-path="url(#SVGID_2_)" fill="#15345A" d="M103.04,40.335c-0.532,0.153-0.874,0.204-1.269,0.204
		c-1.342,0-2.027-0.772-2.027-2.293v-3.002h-1.557v-0.748h1.557v-2.167h0.862v2.167h2.219v0.748h-2.219v3.002
		c0,1.064,0.417,1.496,1.306,1.496c0.304,0,0.67-0.064,0.987-0.152L103.04,40.335z"/>
	<path clip-path="url(#SVGID_2_)" fill="#15345A" d="M109.781,37.424c0,1.761-1.355,3.115-3.104,3.115
		c-1.761,0-3.117-1.354-3.117-3.115c0-1.737,1.356-3.079,3.117-3.079C108.426,34.345,109.781,35.687,109.781,37.424 M108.919,37.424
		c0-1.255-0.963-2.282-2.242-2.282c-1.281,0-2.241,1.027-2.241,2.282c0,1.292,0.96,2.33,2.241,2.33
		C107.956,39.754,108.919,38.716,108.919,37.424"/>
	<path clip-path="url(#SVGID_2_)" fill="#15345A" d="M116.521,40.349h-0.859v-0.684c-0.546,0.546-1.293,0.874-2.157,0.874
		c-1.469,0-2.495-1.013-2.495-2.66v-3.383h0.863v3.334c0,1.227,0.722,1.924,1.786,1.924c0.734,0,1.495-0.394,2.002-1.09v-4.168
		h0.859V40.349z"/>
	<path clip-path="url(#SVGID_2_)" fill="#15345A" d="M127.912,36.979v3.37h-0.86v-3.332c0-1.217-0.634-1.913-1.687-1.913
		c-0.721,0-1.407,0.342-1.875,1.127c0.053,0.228,0.076,0.481,0.076,0.748v3.37h-0.86v-3.332c0-1.217-0.647-1.913-1.688-1.913
		c-0.698,0-1.343,0.354-1.812,1.063v4.182h-0.859v-5.854h0.859v0.671c0.483-0.545,1.078-0.861,1.966-0.861
		c0.86,0,1.583,0.394,2.002,1.091c0.568-0.697,1.305-1.091,2.344-1.091C126.925,34.306,127.912,35.332,127.912,36.979"/>
	<path clip-path="url(#SVGID_2_)" fill="#15345A" d="M140.812,36.042v4.307h-0.733l-0.077-1.836
		c-0.607,1.216-1.735,2.015-3.345,2.015c-2.533,0-4.448-2.003-4.448-4.437c0-2.583,2.016-4.535,4.512-4.535
		c1.889,0,3.613,1.115,4.079,3.018h-0.964c-0.431-1.421-1.759-2.156-3.103-2.156c-2.025,0-3.61,1.561-3.61,3.674
		c0,1.953,1.48,3.563,3.534,3.563c1.836,0,2.989-1.292,3.219-2.99h-3.293V35.84h4.242l-0.025,0.202H140.812z"/>
	<rect x="142.663" y="31.354" clip-path="url(#SVGID_2_)" fill="#15345A" width="0.86" height="8.996"/>
	<path clip-path="url(#SVGID_2_)" fill="#15345A" d="M151.227,37.424c0,1.761-1.354,3.115-3.103,3.115
		c-1.762,0-3.118-1.354-3.118-3.115c0-1.737,1.356-3.079,3.118-3.079C149.872,34.345,151.227,35.687,151.227,37.424 M150.365,37.424
		c0-1.255-0.962-2.282-2.241-2.282s-2.245,1.027-2.245,2.282c0,1.292,0.966,2.33,2.245,2.33S150.365,38.716,150.365,37.424"/>
	<path clip-path="url(#SVGID_2_)" fill="#15345A" d="M158.677,37.424c0,1.708-1.342,3.078-3.027,3.078
		c-0.86,0-1.583-0.304-2.116-0.811v0.658h-0.859v-8.996h0.859v3.802c0.533-0.507,1.256-0.811,2.116-0.811
		C157.335,34.345,158.677,35.713,158.677,37.424 M157.816,37.424c0-1.27-0.987-2.333-2.267-2.333c-0.813,0-1.522,0.368-2.017,1.104
		v2.457c0.494,0.736,1.204,1.091,2.017,1.091C156.829,39.742,157.816,38.678,157.816,37.424"/>
	<path clip-path="url(#SVGID_2_)" fill="#15345A" d="M165.761,40.35h-0.86v-0.647c-0.532,0.509-1.24,0.812-2.115,0.812
		c-1.674,0-3.03-1.366-3.03-3.089c0-1.713,1.356-3.08,3.03-3.08c0.875,0,1.583,0.304,2.115,0.811v-0.659h0.86V40.35z M164.9,38.69
		v-2.521c-0.494-0.71-1.205-1.064-2.002-1.064c-1.294,0-2.269,1.064-2.269,2.32c0,1.266,0.975,2.328,2.269,2.328
		C163.695,39.753,164.406,39.398,164.9,38.69"/>
	<rect x="167.586" y="31.354" clip-path="url(#SVGID_2_)" fill="#15345A" width="0.862" height="8.996"/>
	<rect x="173.529" y="31.733" clip-path="url(#SVGID_2_)" fill="#15345A" width="0.897" height="8.616"/>
	<path clip-path="url(#SVGID_2_)" fill="#15345A" d="M181.905,36.979v3.37h-0.863v-3.332c0-1.217-0.722-1.913-1.785-1.913
		c-0.748,0-1.508,0.391-2.015,1.09v4.155h-0.861v-5.854h0.861v0.697c0.544-0.557,1.305-0.888,2.166-0.888
		C180.877,34.306,181.905,35.332,181.905,36.979"/>
	<path clip-path="url(#SVGID_2_)" fill="#15345A" d="M183.488,32.276c0-0.328,0.265-0.58,0.595-0.58c0.343,0,0.608,0.252,0.608,0.58
		c0,0.344-0.266,0.585-0.608,0.585C183.753,32.861,183.488,32.62,183.488,32.276 M184.514,40.35h-0.859v-5.854h0.859V40.35z"/>
	<path clip-path="url(#SVGID_2_)" fill="#15345A" d="M190.343,40.335c-0.531,0.153-0.874,0.204-1.266,0.204
		c-1.346,0-2.029-0.772-2.029-2.293v-3.002h-1.558v-0.748h1.558v-2.167h0.863v2.167h2.217v0.748h-2.217v3.002
		c0,1.064,0.419,1.496,1.304,1.496c0.304,0,0.671-0.064,0.989-0.152L190.343,40.335z"/>
	<path clip-path="url(#SVGID_2_)" fill="#15345A" d="M191.674,32.276c0-0.328,0.266-0.58,0.594-0.58c0.345,0,0.609,0.252,0.609,0.58
		c0,0.344-0.265,0.585-0.609,0.585C191.939,32.861,191.674,32.62,191.674,32.276 M192.7,40.35h-0.863v-5.854h0.863V40.35z"/>
	<path clip-path="url(#SVGID_2_)" fill="#15345A" d="M200.3,40.35h-0.859v-0.647c-0.532,0.509-1.241,0.812-2.115,0.812
		c-1.674,0-3.027-1.366-3.027-3.089c0-1.713,1.354-3.08,3.027-3.08c0.874,0,1.583,0.304,2.115,0.811v-0.659h0.859V40.35z
		 M199.44,38.69v-2.521c-0.494-0.71-1.203-1.064-2-1.064c-1.293,0-2.27,1.064-2.27,2.32c0,1.266,0.977,2.328,2.27,2.328
		C198.237,39.753,198.946,39.398,199.44,38.69"/>
	<path clip-path="url(#SVGID_2_)" fill="#15345A" d="M205.952,40.335c-0.529,0.153-0.873,0.204-1.265,0.204
		c-1.343,0-2.027-0.772-2.027-2.293v-3.002h-1.56v-0.748h1.56v-2.167h0.86v2.167h2.218v0.748h-2.218v3.002
		c0,1.064,0.419,1.496,1.307,1.496c0.301,0,0.671-0.064,0.987-0.152L205.952,40.335z"/>
	<path clip-path="url(#SVGID_2_)" fill="#15345A" d="M207.284,32.276c0-0.328,0.266-0.58,0.596-0.58c0.342,0,0.607,0.252,0.607,0.58
		c0,0.344-0.266,0.585-0.607,0.585C207.55,32.861,207.284,32.62,207.284,32.276 M208.311,40.35h-0.86v-5.854h0.86V40.35z"/>
	<polygon clip-path="url(#SVGID_2_)" fill="#15345A" points="213.012,40.349 212.213,40.349 209.425,34.496 210.351,34.496 
		212.606,39.247 214.863,34.496 215.8,34.496 	"/>
	<path clip-path="url(#SVGID_2_)" fill="#15345A" d="M222.021,37.766l-0.051-0.026v0.026h-4.955
		c0.128,1.114,0.925,2.001,2.192,2.001c0.811,0,1.432-0.343,1.7-0.9h0.936c-0.342,1.001-1.369,1.646-2.662,1.646
		c-1.785,0-3.039-1.354-3.039-3.089c0-1.725,1.254-3.08,3.039-3.08c1.674,0,2.84,1.292,2.854,3.054
		C222.035,37.524,222.035,37.651,222.021,37.766 M217.015,37.094h4.146c-0.103-1.179-0.85-2.003-2.001-2.003
		C217.928,35.091,217.143,35.99,217.015,37.094"/>
	<path clip-path="url(#SVGID_2_)" fill="#15345A" d="M223.818,38.537c0.179,0.799,0.8,1.281,1.94,1.281
		c0.95,0,1.597-0.406,1.597-1.04c0-0.52-0.419-0.837-1.014-0.925l-1.332-0.229c-0.975-0.151-1.734-0.583-1.734-1.569
		c0-1.053,0.938-1.736,2.343-1.736c1.191,0,2.433,0.52,2.534,1.862h-0.797c-0.115-0.761-0.748-1.166-1.737-1.166
		c-0.923,0-1.494,0.405-1.494,0.975c0,0.444,0.316,0.786,1.152,0.914l1.167,0.203c0.85,0.138,1.747,0.505,1.747,1.62
		c0,1.14-1.025,1.811-2.456,1.811c-1.521,0-2.534-0.671-2.727-2.001H223.818z"/>
	<rect x="58.869" y="50.721" clip-path="url(#SVGID_2_)" fill="#FCB343" width="86.547" height="4.272"/>
</g>
</svg>
