<svg id="Layer_1" data-name="Layer 1" xmlns="http://www.w3.org/2000/svg" viewBox="0 0 1254.89 1208.36"><defs><style>.cls-1,.cls-14,.cls-19,.cls-2,.cls-3,.cls-4,.cls-5,.cls-9{opacity:0.19;}.cls-1,.cls-6{font-size:139.23px;}.cls-1,.cls-10,.cls-100,.cls-101,.cls-102,.cls-103,.cls-104,.cls-105,.cls-106,.cls-107,.cls-108,.cls-109,.cls-11,.cls-110,.cls-111,.cls-112,.cls-113,.cls-114,.cls-115,.cls-116,.cls-117,.cls-118,.cls-119,.cls-12,.cls-120,.cls-121,.cls-122,.cls-123,.cls-124,.cls-13,.cls-14,.cls-15,.cls-16,.cls-17,.cls-18,.cls-19,.cls-2,.cls-20,.cls-21,.cls-22,.cls-23,.cls-24,.cls-25,.cls-26,.cls-27,.cls-28,.cls-29,.cls-3,.cls-30,.cls-31,.cls-32,.cls-33,.cls-34,.cls-35,.cls-36,.cls-37,.cls-38,.cls-39,.cls-4,.cls-40,.cls-41,.cls-42,.cls-43,.cls-44,.cls-45,.cls-46,.cls-47,.cls-48,.cls-49,.cls-5,.cls-50,.cls-51,.cls-52,.cls-53,.cls-54,.cls-55,.cls-56,.cls-57,.cls-58,.cls-59,.cls-6,.cls-60,.cls-61,.cls-62,.cls-63,.cls-64,.cls-65,.cls-66,.cls-67,.cls-68,.cls-69,.cls-7,.cls-70,.cls-71,.cls-72,.cls-73,.cls-74,.cls-75,.cls-76,.cls-77,.cls-78,.cls-79,.cls-8,.cls-80,.cls-81,.cls-82,.cls-83,.cls-84,.cls-85,.cls-86,.cls-87,.cls-88,.cls-89,.cls-9,.cls-90,.cls-91,.cls-92,.cls-93,.cls-94,.cls-95,.cls-96,.cls-97,.cls-98,.cls-99{fill:#231f20;font-family:AGABalloon, AGA Balloon بالون ;}.cls-2{font-size:157.72px;}.cls-3{font-size:92.06px;}.cls-4{font-size:86.94px;}.cls-5{font-size:94.17px;}.cls-10,.cls-100,.cls-101,.cls-103,.cls-104,.cls-105,.cls-106,.cls-107,.cls-108,.cls-12,.cls-15,.cls-17,.cls-21,.cls-22,.cls-23,.cls-24,.cls-25,.cls-26,.cls-27,.cls-28,.cls-29,.cls-30,.cls-31,.cls-55,.cls-57,.cls-58,.cls-59,.cls-6,.cls-60,.cls-61,.cls-62,.cls-63,.cls-65,.cls-66,.cls-7,.cls-71,.cls-73,.cls-77,.cls-95,.cls-96,.cls-97,.cls-98,.cls-99{opacity:0.03;}.cls-7{font-size:65.46px;}.cls-11,.cls-124,.cls-13,.cls-16,.cls-18,.cls-20,.cls-54,.cls-56,.cls-69,.cls-74,.cls-8{opacity:0.25;}.cls-8{font-size:50.18px;}.cls-9{font-size:95.48px;}.cls-10{font-size:239.34px;}.cls-11,.cls-17{font-size:68.03px;}.cls-12{font-size:188.75px;}.cls-13{font-size:55.62px;}.cls-14{font-size:89.7px;}.cls-15{font-size:96.17px;}.cls-16{font-size:50.95px;}.cls-18{font-size:105.98px;}.cls-19{font-size:96.35px;}.cls-20{font-size:58.31px;}.cls-21{font-size:146.74px;}.cls-22{font-size:166.23px;}.cls-23{font-size:97.03px;}.cls-24{font-size:109.47px;}.cls-25{font-size:99.25px;}.cls-26{font-size:146.74px;}.cls-27{font-size:198.93px;}.cls-28{font-size:146.74px;}.cls-29{font-size:94.54px;}.cls-30{font-size:101.36px;}.cls-31{font-size:120.45px;}.cls-32,.cls-33,.cls-34,.cls-35,.cls-36,.cls-37,.cls-38,.cls-39,.cls-40,.cls-41,.cls-42,.cls-43{opacity:0.15;}.cls-32{font-size:52.59px;}.cls-33{font-size:59.57px;}.cls-34{font-size:34.77px;}.cls-35{font-size:39.23px;}.cls-36{font-size:35.57px;}.cls-37{font-size:52.59px;}.cls-38{font-size:52.59px;}.cls-39{font-size:59.16px;}.cls-40{font-size:71.29px;}.cls-41{font-size:33.88px;}.cls-42{font-size:36.32px;}.cls-43{font-size:43.17px;}.cls-109,.cls-110,.cls-111,.cls-112,.cls-113,.cls-114,.cls-115,.cls-116,.cls-117,.cls-118,.cls-119,.cls-120,.cls-121,.cls-122,.cls-123,.cls-44,.cls-45,.cls-46,.cls-47,.cls-48,.cls-50,.cls-51,.cls-52,.cls-53,.cls-64,.cls-67,.cls-75,.cls-76,.cls-78,.cls-79{opacity:0.08;}.cls-44{font-size:72px;}.cls-45{font-size:81.56px;}.cls-46{font-size:47.61px;}.cls-47{font-size:53.71px;}.cls-48{font-size:48.7px;}.cls-49,.cls-68,.cls-70,.cls-72,.cls-80,.cls-81,.cls-82,.cls-83,.cls-84,.cls-85,.cls-86,.cls-88,.cls-90,.cls-91,.cls-92,.cls-93,.cls-94{opacity:0.07;}.cls-49{font-size:123.77px;}.cls-50{font-size:97.61px;}.cls-51{font-size:46.39px;}.cls-52{font-size:49.73px;}.cls-53{font-size:59.1px;}.cls-54,.cls-55{font-size:56.48px;}.cls-56,.cls-57{font-size:126.72px;}.cls-58{font-size:35.21px;}.cls-59{font-size:39.89px;}.cls-60{font-size:23.04px;}.cls-61{font-size:26.63px;}.cls-62{font-size:24.15px;}.cls-63,.cls-72{font-size:35.7px;}.cls-64{font-size:50.62px;}.cls-65{font-size:35.68px;}.cls-66{font-size:61.37px;}.cls-67{font-size:68.62px;}.cls-68{font-size:48.4px;}.cls-69{font-size:26.83px;}.cls-70{font-size:35.59px;}.cls-71{font-size:22.12px;}.cls-73{font-size:24.17px;}.cls-74{font-size:25.1px;}.cls-75{font-size:67.92px;}.cls-76{font-size:109.11px;}.cls-77{font-size:29.01px;}.cls-78{font-size:69.99px;}.cls-79{font-size:60.36px;}.cls-80{font-size:35.36px;}.cls-81{font-size:73.27px;}.cls-82{font-size:83px;}.cls-83{font-size:52.44px;}.cls-84{font-size:48.15px;}.cls-85{font-size:43.66px;}.cls-86{font-size:64.55px;}.cls-87,.cls-89{opacity:0.14;}.cls-87{font-size:21.96px;}.cls-88{font-size:64.97px;}.cls-89{font-size:29.77px;}.cls-90{font-size:66.68px;}.cls-91{font-size:55.83px;}.cls-92{font-size:53.09px;}.cls-93{font-size:58.39px;}.cls-94{font-size:70.69px;}.cls-95{font-size:143.19px;}.cls-96{font-size:162.21px;}.cls-97{font-size:106.91px;}.cls-98{font-size:85.58px;}.cls-99{font-size:77.59px;}.cls-100{font-size:114.72px;}.cls-101{font-size:116.16px;}.cls-102{opacity:0.17;font-size:29.33px;}.cls-103{font-size:155.51px;}.cls-104{font-size:121.95px;}.cls-105{font-size:118.08px;}.cls-106{font-size:106.57px;}.cls-107{font-size:112px;}.cls-108{font-size:135.06px;}.cls-109{font-size:35.4px;}.cls-110{font-size:40.1px;}.cls-111{font-size:22.81px;}.cls-112{font-size:25.78px;}.cls-113{font-size:23.37px;}.cls-114{font-size:34.56px;}.cls-115{font-size:34.43px;}.cls-116{font-size:59.41px;}.cls-117{font-size:46.85px;}.cls-118{font-size:34.31px;}.cls-119{font-size:22.95px;}.cls-120{font-size:24.56px;}.cls-121{font-size:28.12px;}.cls-122{font-size:34.26px;}.cls-123{font-size:57.01px;}.cls-124{font-size:62.01px;}</style></defs><text class="cls-1" transform="matrix(0.81, 0.58, -0.58, 0.81, 118.79, 1004.49)">ا</text><text class="cls-2" transform="matrix(0.81, 0.58, -0.58, 0.81, 192.74, 999.41)">ف</text><text class="cls-3" transform="translate(138.99 1188.73) rotate(-50.95)">ف</text><text class="cls-4" transform="translate(74.07 1104.6)">ب</text><text class="cls-5" transform="translate(174.46 1069.42)">ع</text><text class="cls-6" transform="translate(279.63 1112.86)">ه</text><text class="cls-6" transform="translate(323.07 999.41)">خ</text><text class="cls-7" transform="translate(244.72 1090.09) rotate(-33.76)">خ</text><text class="cls-8" transform="translate(120.45 153.07) rotate(-53.52)">خ</text><text class="cls-9" transform="translate(81.7 1011) rotate(172.85)">غ</text><text class="cls-10" transform="translate(463.26 959.53)">م</text><text class="cls-11" transform="translate(93.24 77.03) rotate(126.48)">و</text><text class="cls-12" transform="translate(377.14 850.33)">ز</text><text class="cls-6" transform="translate(373.75 1140.13)">ظ</text><text class="cls-13" transform="translate(32.86 78.65) rotate(55.13)">ط</text><text class="cls-6" transform="translate(190.92 836.36) rotate(163.61)">ش</text><text class="cls-14" transform="translate(247.22 1161.51) rotate(-103.03)">ش</text><text class="cls-6" transform="translate(409.28 1041.39)">ي</text><text class="cls-6" transform="translate(192.74 900.52)">ئ</text><text class="cls-15" transform="translate(279.63 1140.13) rotate(44.69)">ك</text><text class="cls-16" transform="translate(61.11 43.91) rotate(23.8)">ع</text><text class="cls-11" transform="translate(110.09 38.21) rotate(109.45)">ث</text><text class="cls-17" transform="translate(355.85 1041.39) rotate(109.45)">ث</text><text class="cls-18" transform="matrix(0.92, -0.38, 0.38, 0.92, 167.35, 162.11)">ق</text><text class="cls-19" transform="matrix(0.03, -1, 1, 0.03, 75.92, 1190.61)">ق</text><text class="cls-11" transform="translate(120.37 118.12) rotate(23.8)">ن</text><text class="cls-20" transform="matrix(-1, 0.09, -0.09, -1, 178.22, 76.39)">ل</text><text class="cls-6" transform="translate(320.36 777.21) rotate(150.93)">ل</text><text class="cls-21" transform="matrix(0.3, 0.95, -0.95, 0.3, 827.01, 842.87)">ا</text><text class="cls-22" transform="translate(892.57 885.35) rotate(72.61)">ف</text><text class="cls-23" transform="matrix(0.97, -0.24, 0.24, 0.97, 727.54, 1011)">ف</text><text class="cls-24" transform="matrix(0.8, 0.6, -0.6, 0.8, 729.62, 894.18)">ب</text><text class="cls-25" transform="matrix(0.8, 0.6, -0.6, 0.8, 832.89, 932.83)">ع</text><text class="cls-26" transform="matrix(0.8, 0.6, -0.6, 0.8, 894.11, 1035.95)">ه</text><text class="cls-26" transform="matrix(0.8, 0.6, -0.6, 0.8, 1002.47, 967.77)">خ</text><text class="cls-26" transform="translate(873.88 780.37) rotate(-150.28)">غ</text><text class="cls-27" transform="matrix(0.8, 0.6, -0.6, 0.8, 1142.33, 876.25)">ز</text><text class="cls-26" transform="matrix(0.8, 0.6, -0.6, 0.8, 956.23, 1118.46)">ظ</text><text class="cls-28" transform="matrix(-0.94, -0.35, 0.35, -0.94, 1047.44, 708.75)">ش</text><text class="cls-29" transform="translate(841.67 1053.46) rotate(-66.16)">ش</text><text class="cls-26" transform="matrix(0.8, 0.6, -0.6, 0.8, 1048.62, 1057.68)">ي</text><text class="cls-26" transform="matrix(0.8, 0.6, -0.6, 0.8, 955.11, 801.97)">ئ</text><text class="cls-30" transform="translate(876.86 1058.94) rotate(81.55)">ك</text><text class="cls-31" transform="translate(666.1 964.92) rotate(6.63)">ق</text><text class="cls-28" transform="translate(1140.7 778.69) rotate(-172.2)">ل</text><text class="cls-32" transform="translate(1054.61 110.06) rotate(35.74)">ا</text><text class="cls-33" transform="matrix(0.81, 0.58, -0.58, 0.81, 1082.55, 108.15)">ف</text><text class="cls-34" transform="translate(1062.24 179.66) rotate(-50.95)">ف</text><text class="cls-35" transform="translate(1037.72 145.71)">ب</text><text class="cls-36" transform="translate(1075.64 134.59)">ع</text><text class="cls-37" transform="translate(1115.37 151)">ه</text><text class="cls-37" transform="translate(1131.78 108.15)">خ</text><text class="cls-38" transform="translate(1054.61 82.06) rotate(172.85)">غ</text><text class="cls-39" transform="translate(1184.73 103.65)">م</text><text class="cls-40" transform="translate(1152.2 51.83)">ز</text><text class="cls-37" transform="translate(1150.92 161.3)">ظ</text><text class="cls-38" transform="translate(1088.98 24.21) rotate(163.61)">ش</text><text class="cls-41" transform="translate(1104.1 167.29) rotate(-103.03)">ش</text><text class="cls-37" transform="translate(1164.34 124)">ي</text><text class="cls-37" transform="translate(1082.55 70.79)">ئ</text><text class="cls-42" transform="matrix(0.71, 0.7, -0.7, 0.71, 1115.37, 161.3)">ك</text><text class="cls-43" transform="matrix(0.86, -0.5, 0.5, 0.86, 1034.72, 179.66)">ق</text><text class="cls-37" transform="matrix(-0.87, 0.49, -0.49, -0.87, 1130.75, 24.21)">ل</text><text class="cls-44" transform="matrix(-0.89, 0.46, -0.46, -0.89, 160.34, 408.43)">ا</text><text class="cls-45" transform="translate(145.34 443.7) rotate(152.7)">ف</text><text class="cls-46" transform="translate(70.68 374.53) rotate(66.01)">ف</text><text class="cls-47" transform="translate(127.32 365.68) rotate(116.96)">ب</text><text class="cls-48" transform="translate(117.36 418.86) rotate(116.96)">ع</text><text class="cls-44" transform="translate(72.68 457.15) rotate(116.96)">ه</text><text class="cls-44" transform="translate(114.78 503.77) rotate(116.96)">خ</text><text class="cls-44" transform="matrix(0.34, -0.94, 0.94, 0.34, 194.51, 425.81)">غ</text><text class="cls-49" transform="translate(100.29 577.74) rotate(116.96)">م</text><text class="cls-50" transform="translate(170.82 563.65) rotate(116.96)">ز</text><text class="cls-44" transform="translate(38.04 494.14) rotate(116.96)">ظ</text><text class="cls-44" transform="matrix(0.18, -0.98, 0.98, 0.18, 243.77, 503.65)">ش</text><text class="cls-51" transform="translate(59.79 433.28) rotate(13.93)">ش</text><text class="cls-44" transform="translate(75.21 533.67) rotate(116.96)">ي</text><text class="cls-44" transform="translate(190.92 466.89) rotate(116.96)">ئ</text><text class="cls-52" transform="matrix(-0.95, 0.31, -0.31, -0.95, 60.11, 450.76)">ك</text><text class="cls-53" transform="matrix(0.06, 1, -1, 0.06, 87.77, 340.95)">ق</text><text class="cls-44" transform="translate(217.83 554.63) rotate(-92.1)">ل</text><text class="cls-54" transform="translate(60.67 118.3) rotate(52.45)">س</text><text class="cls-55" transform="translate(264.58 930.36) rotate(52.45)">س</text><text class="cls-56" transform="translate(243.76 214.07) rotate(-34.87)">د</text><text class="cls-57" transform="translate(401.26 959.53) rotate(-34.87)">د</text><text class="cls-58" transform="matrix(0.79, 0.59, -0.57, 0.82, 146.49, 724.63)">ا</text><text class="cls-59" transform="matrix(0.79, 0.59, -0.57, 0.82, 164.69, 723.33)">ف</text><text class="cls-60" transform="matrix(0.62, -0.8, 0.76, 0.65, 151.46, 771.87)">ف</text><text class="cls-61" transform="translate(135.49 748.83) scale(0.96 1)">ب</text><text class="cls-62" transform="translate(160.19 741.28) scale(0.96 1)">ع</text><text class="cls-63" transform="translate(186.07 752.42) scale(0.96 1)">ه</text><text class="cls-63" transform="translate(196.75 723.33) scale(0.96 1)">خ</text><text class="cls-64" transform="matrix(0.59, -0.83, 0.79, 0.61, 265.57, 131.18)">خ</text><text class="cls-65" transform="matrix(-0.95, 0.12, -0.12, -0.99, 146.49, 705.62)">غ</text><text class="cls-66" transform="translate(231.25 713.1) scale(0.96 1)">م</text><text class="cls-67" transform="matrix(-0.59, 0.83, -0.79, -0.61, 238.54, 52.44)">و</text><text class="cls-68" transform="translate(210.06 685.1) scale(0.96 1)">ز</text><text class="cls-63" transform="translate(209.22 759.41) scale(0.96 1)">ظ</text><text class="cls-69" transform="matrix(0.56, 0.84, -0.81, 0.59, 127.32, 213.45)">ط</text><text class="cls-70" transform="matrix(-0.92, 0.28, -0.27, -0.96, 168.88, 666.35)">ش</text><text class="cls-71" transform="matrix(-0.22, -1.01, 0.97, -0.23, 178.73, 763.48)">ش</text><text class="cls-63" transform="translate(217.97 734.09) scale(0.96 1)">ي</text><text class="cls-72" transform="translate(164.69 697.97) scale(0.96 1)">ئ</text><text class="cls-73" transform="matrix(0.7, 0.72, -0.69, 0.73, 186.07, 759.41)">ك</text><text class="cls-74" transform="matrix(0.88, 0.41, -0.39, 0.92, 140.76, 196.23)">ع</text><text class="cls-75" transform="matrix(-0.33, 0.98, -0.94, -0.35, 255.28, 12.24)">ث</text><text class="cls-76" transform="matrix(0.89, -0.38, 0.37, 0.93, 312.18, 140.54)">ق</text><text class="cls-77" transform="matrix(0.84, -0.51, 0.49, 0.87, 133.54, 771.87)">ق</text><text class="cls-78" transform="matrix(0.88, 0.41, -0.39, 0.92, 265.49, 94.99)">ن</text><text class="cls-79" transform="matrix(-0.96, 0.09, -0.09, -1, 322.99, 51.77)">ل</text><text class="cls-80" transform="matrix(-0.85, 0.49, -0.47, -0.88, 196.09, 666.35)">ل</text><text class="cls-81" transform="matrix(0.97, 0.51, -0.7, 0.72, 88.32, 752.57)">ا</text><text class="cls-82" transform="matrix(0.97, 0.51, -0.7, 0.72, 134.9, 750.22)">ف</text><text class="cls-83" transform="matrix(0.7, -0.63, 0.86, 0.51, 101.04, 837.98)">ف</text><text class="cls-84" transform="translate(60.16 796.33) scale(1.36 1)">ب</text><text class="cls-85" transform="translate(123.39 782.68) scale(1.36 1)">ع</text><text class="cls-86" transform="translate(189.62 802.81) scale(1.36 1)">ه</text><text class="cls-87" transform="translate(74.03 668.42) scale(0.96 1)">خ</text><text class="cls-88" transform="matrix(-1.34, 0.12, -0.17, -0.99, 88.32, 718.21)">غ</text><text class="cls-89" transform="translate(82.21 644.91) scale(0.96 1)">ز</text><text class="cls-87" transform="translate(81.7 690.61) scale(0.96 1)">ظ</text><text class="cls-90" transform="matrix(-1.26, 0.27, -0.37, -0.93, 145.62, 647.2)">ش</text><text class="cls-91" transform="matrix(-0.23, -0.73, 0.99, -0.17, 170.83, 822.81)">ش</text><text class="cls-87" transform="translate(87.07 675.04) scale(0.96 1)">ي</text><text class="cls-86" transform="translate(134.89 704.37) scale(1.36 1)">ئ</text><text class="cls-92" transform="matrix(0.81, 0.59, -0.8, 0.6, 189.61, 815.45)">ك</text><text class="cls-93" transform="matrix(1.06, -0.46, 0.62, 0.78, 55.16, 837.99)">ق</text><text class="cls-94" transform="matrix(-1.08, 0.44, -0.6, -0.8, 215.27, 647.21)">ل</text><text class="cls-95" transform="matrix(1.06, 0.47, -0.76, 0.65, 718.79, 437.64)">ا</text><text class="cls-96" transform="matrix(1.06, 0.47, -0.76, 0.65, 817.7, 433.45)">ف</text><text class="cls-97" transform="matrix(0.73, -0.55, 0.89, 0.45, 745.81, 589.43)">ف</text><text class="cls-98" transform="translate(658.98 515.4) scale(1.62 1)">ب</text><text class="cls-99" transform="translate(793.26 491.13) scale(1.62 1)">ع</text><text class="cls-100" transform="translate(933.95 526.92) scale(1.62 1)">ه</text><text class="cls-100" transform="translate(992.05 433.46) scale(1.62 1)">خ</text><text class="cls-101" transform="matrix(-1.59, 0.12, -0.2, -0.98, 718.79, 376.56)">غ</text><text class="cls-102" transform="translate(1185.4 210.41) scale(0.96 1)">م</text><text class="cls-103" transform="translate(1064.38 310.62) scale(1.62 1)">ز</text><text class="cls-100" transform="translate(1059.85 549.39) scale(1.62 1)">ظ</text><text class="cls-104" transform="matrix(-1.47, 0.27, -0.43, -0.9, 840.49, 250.37)">ش</text><text class="cls-105" transform="matrix(-0.23, -0.61, 0.99, -0.14, 894.04, 562.47)">ش</text><text class="cls-100" transform="translate(1107.37 468.04) scale(1.62 1)">ي</text><text class="cls-100" transform="translate(817.71 351.97) scale(1.62 1)">ئ</text><text class="cls-106" transform="matrix(0.86, 0.52, -0.85, 0.53, 933.95, 549.39)">ك</text><text class="cls-107" transform="matrix(1.18, -0.42, 0.69, 0.73, 648.36, 589.44)">ق</text><text class="cls-108" transform="matrix(-1.21, 0.41, -0.67, -0.74, 988.44, 250.38)">ل</text><text class="cls-109" transform="matrix(-0.86, 0.46, -0.44, -0.9, 187.97, 376.97)">ا</text><text class="cls-110" transform="matrix(-0.86, 0.46, -0.44, -0.9, 180.84, 394.46)">ف</text><text class="cls-111" transform="matrix(0.4, 0.95, -0.91, 0.42, 145.32, 360.16)">ف</text><text class="cls-112" transform="matrix(-0.45, 0.92, -0.88, -0.47, 172.26, 355.77)">ب</text><text class="cls-113" transform="matrix(-0.45, 0.92, -0.88, -0.47, 167.52, 382.14)">ع</text><text class="cls-114" transform="matrix(-0.45, 0.92, -0.88, -0.47, 146.26, 401.13)">ه</text><text class="cls-114" transform="matrix(-0.45, 0.92, -0.88, -0.47, 166.3, 424.24)">خ</text><text class="cls-115" transform="matrix(0.34, -0.98, 0.94, 0.35, 204.23, 385.59)">غ</text><text class="cls-116" transform="matrix(-0.45, 0.92, -0.88, -0.47, 159.4, 460.92)">م</text><text class="cls-117" transform="matrix(-0.45, 0.92, -0.88, -0.47, 192.96, 453.93)">ز</text><text class="cls-114" transform="matrix(-0.45, 0.92, -0.88, -0.47, 129.78, 419.47)">ظ</text><text class="cls-118" transform="matrix(0.18, -1.02, 0.98, 0.19, 227.67, 424.18)">ش</text><text class="cls-119" transform="matrix(0.93, 0.24, -0.23, 0.97, 140.13, 389.29)">ش</text><text class="cls-114" transform="matrix(-0.45, 0.92, -0.88, -0.47, 147.47, 439.06)">ي</text><text class="cls-114" transform="matrix(-0.45, 0.92, -0.88, -0.47, 202.52, 405.96)">ئ</text><text class="cls-120" transform="matrix(-0.91, 0.32, -0.3, -0.95, 140.29, 397.96)">ك</text><text class="cls-121" transform="matrix(0.06, 1.04, -1, 0.06, 153.45, 343.51)">ق</text><text class="cls-122" transform="matrix(-0.04, -1.04, 1, -0.04, 215.33, 449.46)">ل</text><text class="cls-123" transform="matrix(0.6, 0.81, -0.78, 0.63, 206.18, 95.18)">س</text><text class="cls-124" transform="matrix(0.8, -0.58, 0.56, 0.83, 81.7, 184.71)">د</text></svg>