<svg width="316" height="158" viewBox="0 0 316 158" fill="none" xmlns="http://www.w3.org/2000/svg">
<path d="M42.1899 155.481H273.068V141.36C273.068 138.411 269.565 135.508 263.457 133.396L263.395 133.374C259.271 131.898 232.91 121.393 218.651 121.711C211.119 121.878 204.671 123.174 199.485 125.561C183.344 132.995 162.142 135.741 150.94 133.584C141.067 131.682 113.965 128.537 103.951 128.679C89.9268 128.875 89.8857 131.252 75.4896 138.924C69.9913 141.852 67.9348 142.22 42.1899 144.555V155.481Z" fill="#F2F2F2"/>
<path d="M4.96876 134.726C4.46601 127.15 7.63595 119.497 14.2043 116.685C12.8765 124.49 14.5125 133.164 18.7308 140.683C20.3738 143.612 22.4838 146.739 22.0348 149.799C21.7554 151.703 20.4787 153.215 18.9186 154.199C17.3584 155.183 15.5201 155.709 13.7041 156.225L13.3906 156.559C9.0747 149.777 5.4715 142.302 4.96876 134.726Z" fill="#F2F2F2"/>
<path d="M14.3009 116.824C11.0435 121.912 9.59632 127.976 10.1988 134.013C10.2985 135.391 10.6028 136.747 11.1017 138.034C11.6472 139.323 12.4838 140.463 13.544 141.364C14.5253 142.231 15.6141 143.017 16.3999 144.081C16.7878 144.6 17.0684 145.194 17.225 145.825C17.3817 146.457 17.4111 147.115 17.3115 147.758C17.0825 149.284 16.3043 150.557 15.4961 151.77C14.5988 153.116 13.6433 154.497 13.4805 156.229C13.4608 156.439 13.1301 156.35 13.1498 156.14C13.433 153.127 15.9379 151.294 16.7797 148.55C17.0087 147.887 17.0867 147.18 17.0081 146.482C16.9295 145.784 16.6962 145.113 16.3257 144.52C15.5935 143.394 14.4713 142.583 13.4713 141.712C12.4242 140.845 11.5725 139.759 10.9737 138.53C10.4141 137.265 10.0595 135.916 9.92358 134.537C9.58397 131.562 9.72312 128.551 10.3356 125.621C10.9907 122.397 12.247 119.33 14.037 116.584C14.1468 116.417 14.41 116.657 14.3009 116.824Z" fill="white"/>
<path d="M9.90543 131.984C8.82493 131.77 7.83724 131.219 7.07979 130.408C6.32233 129.597 5.83278 128.567 5.67923 127.461C5.65548 127.246 5.98567 127.245 6.00945 127.461C6.15071 128.491 6.60666 129.45 7.31318 130.204C8.0197 130.957 8.94125 131.467 9.94822 131.662C9.96936 131.664 9.98978 131.671 10.0083 131.682C10.0268 131.692 10.0431 131.707 10.0561 131.724C10.0692 131.741 10.0787 131.76 10.0842 131.781C10.0898 131.802 10.0912 131.824 10.0883 131.845C10.0855 131.866 10.0785 131.887 10.0677 131.906C10.057 131.924 10.0427 131.941 10.0256 131.954C10.0086 131.967 9.98922 131.976 9.96859 131.981C9.94795 131.987 9.92648 131.988 9.90543 131.984Z" fill="white"/>
<path d="M12.9974 140.982C13.8037 140.373 14.4736 139.597 14.963 138.706C15.4524 137.815 15.7502 136.828 15.8369 135.812C15.8574 135.602 16.1881 135.691 16.1676 135.901C16.0753 136.958 15.7632 137.984 15.2518 138.91C14.7405 139.836 14.0415 140.641 13.201 141.273C13.0402 141.393 12.8375 141.101 12.9974 140.982Z" fill="white"/>
<path d="M11.3758 122.646C11.7527 122.81 12.1646 122.874 12.5726 122.831C12.9806 122.789 13.3712 122.641 13.7072 122.402C13.8661 122.281 14.0686 122.573 13.9107 122.693C13.5385 122.955 13.1071 123.118 12.6566 123.166C12.2061 123.214 11.7509 123.146 11.333 122.968C11.2897 122.956 11.2519 122.928 11.2257 122.891C11.1996 122.854 11.1867 122.808 11.1891 122.763C11.1922 122.742 11.1997 122.722 11.2112 122.704C11.2227 122.686 11.2379 122.671 11.2556 122.66C11.2734 122.649 11.2934 122.642 11.3142 122.639C11.3349 122.637 11.356 122.639 11.3758 122.646Z" fill="white"/>
<path d="M38.1691 129.028C38.0725 129.107 37.9758 129.186 37.8795 129.268C36.5882 130.337 35.3983 131.526 34.3251 132.819C34.2404 132.918 34.1562 133.019 34.0748 133.12C31.5074 136.308 29.6281 140.007 28.5584 143.978C28.1197 145.598 27.8118 147.251 27.6378 148.921C27.3933 151.25 27.3174 153.821 26.331 155.767C26.231 155.971 26.117 156.167 25.9898 156.354L13.8788 156.978C13.8486 156.965 13.8188 156.955 13.7885 156.943L13.3092 156.99C13.3121 156.902 13.3171 156.81 13.32 156.722C13.3215 156.67 13.3257 156.619 13.3272 156.568C13.329 156.533 13.331 156.499 13.3307 156.468C13.3313 156.456 13.332 156.445 13.3331 156.436C13.3327 156.405 13.3358 156.376 13.336 156.348C13.3623 155.836 13.3913 155.325 13.426 154.813C13.4255 154.81 13.4255 154.81 13.4277 154.807C13.6358 150.959 14.3245 147.153 15.4771 143.481C15.5127 143.373 15.5477 143.263 15.5888 143.156C16.1264 141.564 16.8068 140.026 17.6213 138.56C18.0663 137.767 18.5562 137.001 19.0885 136.265C20.4668 134.37 22.1715 132.744 24.1204 131.464C26.1096 130.12 28.3485 129.202 30.6998 128.767C33.0511 128.332 35.4653 128.388 37.7942 128.933C37.9199 128.964 38.0429 128.995 38.1691 129.028Z" fill="#F2F2F2"/>
<path d="M38.1715 129.187C32.4945 130.634 27.5168 134.098 24.1406 138.95C23.3994 139.983 22.845 141.141 22.5032 142.371C22.2054 143.649 22.254 144.986 22.644 146.239C22.9856 147.457 23.4714 148.682 23.521 149.921C23.5483 150.528 23.4337 151.132 23.1866 151.685C22.9395 152.238 22.567 152.724 22.0995 153.103C20.9737 154.051 19.5153 154.485 18.0673 154.857C16.4596 155.27 14.7795 155.672 13.587 156.809C13.4425 156.947 13.2045 156.681 13.3488 156.544C15.4235 154.566 18.7452 154.787 21.1504 153.343C22.2727 152.669 23.1499 151.619 23.1898 150.189C23.2247 148.939 22.7248 147.675 22.3686 146.443C21.9717 145.22 21.876 143.916 22.09 142.647C22.3636 141.398 22.8694 140.213 23.5801 139.156C25.1217 136.783 27.0738 134.712 29.3422 133.045C31.9677 131.098 34.9342 129.676 38.0835 128.854C38.2818 128.802 38.3685 129.135 38.1715 129.187Z" fill="white"/>
<path d="M25.1094 137.323C23.4265 135.709 23.0054 133.222 24.1158 131.515C24.2252 131.347 24.5171 131.548 24.4076 131.716C23.3673 133.316 23.7695 135.61 25.3427 137.119C25.5082 137.278 25.2741 137.481 25.1094 137.323Z" fill="white"/>
<path d="M22.3922 145.632C23.4136 145.711 24.4401 145.578 25.4093 145.242C26.3786 144.905 27.2704 144.373 28.0306 143.676C28.1756 143.539 28.4137 143.804 28.2688 143.941C27.476 144.665 26.5466 145.217 25.537 145.565C24.5274 145.912 23.4587 146.048 22.3957 145.964C22.1814 145.951 22.179 145.619 22.3922 145.632Z" fill="white"/>
<path d="M32.0628 131.556C32.3174 131.916 32.6471 132.214 33.0285 132.43C33.4099 132.646 33.8335 132.774 34.2692 132.805C34.4831 132.816 34.4853 133.148 34.2727 133.137C33.7914 133.101 33.3236 132.959 32.9017 132.721C32.4799 132.484 32.114 132.155 31.8296 131.76C31.7993 131.729 31.7821 131.687 31.7816 131.643C31.7812 131.599 31.7974 131.557 31.8271 131.525C31.8628 131.499 31.9071 131.487 31.9509 131.493C31.9947 131.499 32.0348 131.521 32.0628 131.556Z" fill="white"/>
<path d="M308.188 134.726C308.691 127.15 305.521 119.497 298.952 116.685C300.28 124.49 298.644 133.164 294.426 140.683C292.783 143.612 290.673 146.739 291.122 149.799C291.401 151.703 292.678 153.215 294.238 154.199C295.798 155.183 297.637 155.709 299.453 156.225L299.766 156.559C304.082 149.777 307.685 142.302 308.188 134.726Z" fill="#F2F2F2"/>
<path d="M298.856 116.824C302.113 121.912 303.56 127.976 302.958 134.013C302.858 135.391 302.554 136.747 302.055 138.034C301.509 139.323 300.673 140.463 299.613 141.364C298.631 142.231 297.542 143.017 296.757 144.081C296.369 144.6 296.088 145.194 295.932 145.825C295.775 146.457 295.745 147.115 295.845 147.758C296.074 149.284 296.852 150.557 297.66 151.77C298.558 153.116 299.513 154.497 299.676 156.229C299.696 156.439 300.026 156.35 300.007 156.14C299.724 153.127 297.219 151.294 296.377 148.55C296.148 147.887 296.07 147.18 296.148 146.482C296.227 145.784 296.46 145.113 296.831 144.52C297.563 143.394 298.685 142.583 299.685 141.712C300.732 140.845 301.584 139.759 302.183 138.53C302.742 137.265 303.097 135.916 303.233 134.537C303.573 131.562 303.433 128.551 302.821 125.621C302.166 122.397 300.91 119.33 299.12 116.584C299.01 116.417 298.747 116.657 298.856 116.824Z" fill="white"/>
<path d="M303.251 131.984C304.332 131.77 305.319 131.219 306.077 130.408C306.834 129.597 307.324 128.567 307.477 127.461C307.501 127.246 307.171 127.245 307.147 127.461C307.006 128.491 306.55 129.45 305.843 130.204C305.137 130.957 304.215 131.467 303.208 131.662C303.187 131.664 303.167 131.671 303.148 131.682C303.13 131.692 303.114 131.707 303.1 131.724C303.087 131.741 303.078 131.76 303.072 131.781C303.067 131.802 303.065 131.824 303.068 131.845C303.071 131.866 303.078 131.887 303.089 131.906C303.1 131.924 303.114 131.941 303.131 131.954C303.148 131.967 303.167 131.976 303.188 131.981C303.209 131.987 303.23 131.988 303.251 131.984Z" fill="white"/>
<path d="M300.159 140.982C299.353 140.373 298.683 139.597 298.194 138.706C297.704 137.815 297.406 136.828 297.32 135.812C297.299 135.602 296.969 135.691 296.989 135.901C297.081 136.958 297.393 137.984 297.905 138.91C298.416 139.836 299.115 140.641 299.956 141.273C300.116 141.393 300.319 141.101 300.159 140.982Z" fill="white"/>
<path d="M301.781 122.646C301.404 122.81 300.992 122.874 300.584 122.831C300.176 122.789 299.785 122.641 299.449 122.402C299.29 122.281 299.088 122.573 299.246 122.693C299.618 122.955 300.049 123.118 300.5 123.166C300.95 123.214 301.406 123.146 301.824 122.968C301.867 122.956 301.905 122.928 301.931 122.891C301.957 122.854 301.97 122.808 301.967 122.763C301.964 122.742 301.957 122.722 301.945 122.704C301.934 122.686 301.919 122.671 301.901 122.66C301.883 122.649 301.863 122.642 301.842 122.639C301.822 122.637 301.801 122.639 301.781 122.646Z" fill="white"/>
<path d="M274.987 129.028C275.084 129.107 275.181 129.186 275.277 129.268C276.568 130.337 277.758 131.526 278.831 132.819C278.916 132.918 279 133.019 279.082 133.12C281.649 136.308 283.529 140.007 284.598 143.978C285.037 145.598 285.345 147.251 285.519 148.921C285.763 151.25 285.839 153.821 286.826 155.767C286.926 155.971 287.04 156.167 287.167 156.354L299.278 156.978C299.308 156.965 299.338 156.955 299.368 156.943L299.847 156.99C299.844 156.902 299.839 156.81 299.837 156.722C299.835 156.671 299.831 156.619 299.829 156.568C299.828 156.533 299.826 156.499 299.826 156.468C299.825 156.456 299.825 156.445 299.823 156.436C299.824 156.405 299.821 156.376 299.821 156.348C299.794 155.836 299.765 155.325 299.731 154.813C299.731 154.81 299.731 154.81 299.729 154.807C299.521 150.959 298.832 147.153 297.679 143.481C297.644 143.373 297.609 143.263 297.568 143.156C297.03 141.564 296.35 140.026 295.535 138.56C295.09 137.767 294.6 137.001 294.068 136.265C292.69 134.37 290.985 132.744 289.036 131.464C287.047 130.12 284.808 129.202 282.457 128.767C280.105 128.332 277.691 128.388 275.362 128.934C275.237 128.964 275.114 128.995 274.987 129.028Z" fill="#F2F2F2"/>
<path d="M274.985 129.187C280.662 130.634 285.64 134.098 289.016 138.95C289.757 139.983 290.312 141.141 290.653 142.371C290.951 143.649 290.903 144.986 290.513 146.239C290.171 147.457 289.685 148.682 289.636 149.921C289.608 150.528 289.723 151.132 289.97 151.685C290.217 152.238 290.59 152.724 291.057 153.103C292.183 154.051 293.641 154.485 295.089 154.857C296.697 155.27 298.377 155.672 299.57 156.809C299.714 156.947 299.952 156.681 299.808 156.544C297.733 154.566 294.411 154.787 292.006 153.343C290.884 152.669 290.007 151.619 289.967 150.189C289.932 148.939 290.432 147.675 290.788 146.443C291.185 145.22 291.281 143.916 291.067 142.647C290.793 141.398 290.287 140.213 289.576 139.156C288.035 136.783 286.083 134.712 283.814 133.045C281.189 131.098 278.222 129.676 275.073 128.854C274.875 128.802 274.788 129.135 274.985 129.187Z" fill="white"/>
<path d="M288.047 137.323C289.73 135.709 290.151 133.222 289.041 131.515C288.931 131.347 288.639 131.548 288.749 131.716C289.789 133.316 289.387 135.61 287.814 137.119C287.648 137.278 287.883 137.481 288.047 137.323Z" fill="white"/>
<path d="M290.764 145.632C289.743 145.711 288.717 145.578 287.747 145.242C286.778 144.905 285.886 144.373 285.126 143.676C284.981 143.539 284.743 143.804 284.888 143.941C285.681 144.665 286.61 145.217 287.62 145.565C288.629 145.912 289.698 146.048 290.761 145.964C290.975 145.951 290.978 145.619 290.764 145.632Z" fill="white"/>
<path d="M281.094 131.556C280.839 131.916 280.509 132.214 280.128 132.43C279.747 132.646 279.323 132.774 278.887 132.805C278.673 132.816 278.671 133.148 278.884 133.137C279.365 133.101 279.833 132.959 280.255 132.721C280.677 132.484 281.043 132.155 281.327 131.76C281.357 131.729 281.374 131.687 281.375 131.643C281.375 131.599 281.359 131.557 281.329 131.525C281.294 131.499 281.249 131.487 281.206 131.493C281.162 131.499 281.122 131.521 281.094 131.556Z" fill="white"/>
<path d="M15.7062 97.2202H13.4862V97.971H15.7062V97.2202Z" fill="#E6E6E6"/>
<path d="M295.103 97.971H290.597V97.2202H295.103V97.971ZM286.091 97.971H281.584V97.2202H286.091V97.971ZM277.078 97.971H272.572V97.2202H277.078V97.971ZM268.065 97.971H263.559V97.2202H268.065V97.971ZM259.052 97.971H254.546V97.2202H259.052V97.971ZM250.04 97.971H245.533V97.2202H250.04V97.971ZM241.027 97.971H236.52V97.2202H241.027V97.971ZM232.014 97.971H227.507V97.2202H232.014L232.014 97.971ZM223.001 97.971H218.495V97.2202H223.001V97.971ZM213.988 97.971H209.482V97.2202H213.988V97.971ZM204.975 97.971H200.469V97.2202H204.975V97.971ZM195.963 97.971H191.456V97.2202H195.963V97.971ZM186.95 97.971H182.443V97.2202H186.95V97.971ZM177.937 97.971H173.431V97.2202H177.937V97.971ZM168.924 97.971H164.418V97.2202H168.924V97.971ZM159.911 97.971H155.405V97.2202H159.911V97.971ZM150.899 97.971H146.392V97.2202H150.899V97.971ZM141.886 97.971H137.379V97.2202H141.886V97.971ZM132.873 97.971H128.366V97.2202H132.873V97.971ZM123.86 97.971H119.354V97.2202H123.86V97.971ZM114.847 97.971H110.341V97.2202H114.847V97.971ZM105.834 97.971H101.328V97.2202H105.834V97.971ZM96.8217 97.971H92.3152V97.2202H96.8217V97.971ZM87.8088 97.971H83.3023V97.2202H87.8088L87.8088 97.971ZM78.7959 97.971H74.2896V97.2202H78.7959V97.971ZM69.7832 97.971H65.2767V97.2202H69.7832V97.971ZM60.7703 97.971H56.2638V97.2202H60.7703V97.971ZM51.7576 97.971H47.2511V97.2202H51.7576V97.971ZM42.7447 97.971H38.2382V97.2202H42.7447V97.971ZM33.7318 97.971H29.2255V97.2202H33.7318V97.971ZM24.7191 97.971H20.2126V97.2202H24.7191V97.971Z" fill="#E6E6E6"/>
<path d="M301.83 97.2202H299.61V97.971H301.83V97.2202Z" fill="#E6E6E6"/>
<path d="M15.7062 91.9648H13.4862V92.7156H15.7062V91.9648Z" fill="#E6E6E6"/>
<path d="M295.103 92.7156H290.597V91.9648H295.103V92.7156ZM286.091 92.7156H281.584V91.9648H286.091V92.7156ZM277.078 92.7156H272.572V91.9648H277.078V92.7156ZM268.065 92.7156H263.559V91.9648H268.065V92.7156ZM259.052 92.7156H254.546V91.9648H259.052V92.7156ZM250.04 92.7156H245.533V91.9648H250.04V92.7156ZM241.027 92.7156H236.52V91.9648H241.027V92.7156ZM232.014 92.7156H227.507V91.9648H232.014L232.014 92.7156ZM223.001 92.7156H218.495V91.9648H223.001V92.7156ZM213.988 92.7156H209.482V91.9648H213.988V92.7156ZM204.975 92.7156H200.469V91.9648H204.975V92.7156ZM195.963 92.7156H191.456V91.9648H195.963V92.7156ZM186.95 92.7156H182.443V91.9648H186.95V92.7156ZM177.937 92.7156H173.431V91.9648H177.937V92.7156ZM168.924 92.7156H164.418V91.9648H168.924V92.7156ZM159.911 92.7156H155.405V91.9648H159.911V92.7156ZM150.899 92.7156H146.392V91.9648H150.899V92.7156ZM141.886 92.7156H137.379V91.9648H141.886V92.7156ZM132.873 92.7156H128.366V91.9648H132.873V92.7156ZM123.86 92.7156H119.354V91.9648H123.86V92.7156ZM114.847 92.7156H110.341V91.9648H114.847V92.7156ZM105.834 92.7156H101.328V91.9648H105.834V92.7156ZM96.8217 92.7156H92.3152V91.9648H96.8217V92.7156ZM87.8088 92.7156H83.3023V91.9648H87.8088L87.8088 92.7156ZM78.7959 92.7156H74.2896V91.9648H78.7959V92.7156ZM69.7832 92.7156H65.2767V91.9648H69.7832V92.7156ZM60.7703 92.7156H56.2638V91.9648H60.7703V92.7156ZM51.7576 92.7156H47.2511V91.9648H51.7576V92.7156ZM42.7447 92.7156H38.2382V91.9648H42.7447V92.7156ZM33.7318 92.7156H29.2255V91.9648H33.7318V92.7156ZM24.7191 92.7156H20.2126V91.9648H24.7191V92.7156Z" fill="#E6E6E6"/>
<path d="M301.83 91.9648H299.61V92.7156H301.83V91.9648Z" fill="#E6E6E6"/>
<path d="M15.7062 81.0786H13.4862V81.8294H15.7062V81.0786Z" fill="#E6E6E6"/>
<path d="M295.103 81.8294H290.597V81.0786H295.103V81.8294ZM286.091 81.8294H281.584V81.0786H286.091V81.8294ZM277.078 81.8294H272.572V81.0786H277.078V81.8294ZM268.065 81.8294H263.559V81.0786H268.065V81.8294ZM259.052 81.8294H254.546V81.0786H259.052V81.8294ZM250.04 81.8294H245.533V81.0786H250.04V81.8294ZM241.027 81.8294H236.52V81.0786H241.027V81.8294ZM232.014 81.8294H227.507V81.0786H232.014L232.014 81.8294ZM223.001 81.8294H218.495V81.0786H223.001V81.8294ZM213.988 81.8294H209.482V81.0786H213.988V81.8294ZM204.975 81.8294H200.469V81.0786H204.975V81.8294ZM195.963 81.8294H191.456V81.0786H195.963V81.8294ZM186.95 81.8294H182.443V81.0786H186.95V81.8294ZM177.937 81.8294H173.431V81.0786H177.937V81.8294ZM168.924 81.8294H164.418V81.0786H168.924V81.8294ZM159.911 81.8294H155.405V81.0786H159.911V81.8294ZM150.899 81.8294H146.392V81.0786H150.899V81.8294ZM141.886 81.8294H137.379V81.0786H141.886V81.8294ZM132.873 81.8294H128.366V81.0786H132.873V81.8294ZM123.86 81.8294H119.354V81.0786H123.86V81.8294ZM114.847 81.8294H110.341V81.0786H114.847V81.8294ZM105.834 81.8294H101.328V81.0786H105.834V81.8294ZM96.8217 81.8294H92.3152V81.0786H96.8217V81.8294ZM87.8088 81.8294H83.3023V81.0786H87.8088L87.8088 81.8294ZM78.7959 81.8294H74.2896V81.0786H78.7959V81.8294ZM69.7832 81.8294H65.2767V81.0786H69.7832V81.8294ZM60.7703 81.8294H56.2638V81.0786H60.7703V81.8294ZM51.7576 81.8294H47.2511V81.0786H51.7576V81.8294ZM42.7447 81.8294H38.2382V81.0786H42.7447V81.8294ZM33.7318 81.8294H29.2255V81.0786H33.7318V81.8294ZM24.7191 81.8294H20.2126V81.0786H24.7191V81.8294Z" fill="#E6E6E6"/>
<path d="M301.83 81.0786H299.61V81.8294H301.83V81.0786Z" fill="#E6E6E6"/>
<path d="M15.7062 73.5706H13.4862V74.3213H15.7062V73.5706Z" fill="#E6E6E6"/>
<path d="M295.103 74.3213H290.597V73.5706H295.103V74.3213ZM286.091 74.3213H281.584V73.5706H286.091V74.3213ZM277.078 74.3213H272.572V73.5706H277.078V74.3213ZM268.065 74.3213H263.559V73.5706H268.065V74.3213ZM259.052 74.3213H254.546V73.5706H259.052V74.3213ZM250.04 74.3213H245.533V73.5706H250.04V74.3213ZM241.027 74.3213H236.52V73.5706H241.027V74.3213ZM232.014 74.3213H227.507V73.5706H232.014L232.014 74.3213ZM223.001 74.3213H218.495V73.5706H223.001V74.3213ZM213.988 74.3213H209.482V73.5706H213.988V74.3213ZM204.975 74.3213H200.469V73.5706H204.975V74.3213ZM195.963 74.3213H191.456V73.5706H195.963V74.3213ZM186.95 74.3213H182.443V73.5706H186.95V74.3213ZM177.937 74.3213H173.431V73.5706H177.937V74.3213ZM168.924 74.3213H164.418V73.5706H168.924V74.3213ZM159.911 74.3213H155.405V73.5706H159.911V74.3213ZM150.899 74.3213H146.392V73.5706H150.899V74.3213ZM141.886 74.3213H137.379V73.5706H141.886V74.3213ZM132.873 74.3213H128.366V73.5706H132.873V74.3213ZM123.86 74.3213H119.354V73.5706H123.86V74.3213ZM114.847 74.3213H110.341V73.5706H114.847V74.3213ZM105.834 74.3213H101.328V73.5706H105.834V74.3213ZM96.8217 74.3213H92.3152V73.5706H96.8217V74.3213ZM87.8088 74.3213H83.3023V73.5706H87.8088L87.8088 74.3213ZM78.7959 74.3213H74.2896V73.5706H78.7959V74.3213ZM69.7832 74.3213H65.2767V73.5706H69.7832V74.3213ZM60.7703 74.3213H56.2638V73.5706H60.7703V74.3213ZM51.7576 74.3213H47.2511V73.5706H51.7576V74.3213ZM42.7447 74.3213H38.2382V73.5706H42.7447V74.3213ZM33.7318 74.3213H29.2255V73.5706H33.7318V74.3213ZM24.7191 74.3213H20.2126V73.5706H24.7191V74.3213Z" fill="#E6E6E6"/>
<path d="M301.83 73.5706H299.61V74.3213H301.83V73.5706Z" fill="#E6E6E6"/>
<path d="M15.7062 57.4287H13.4862V58.1795H15.7062V57.4287Z" fill="#E6E6E6"/>
<path d="M295.103 58.1795H290.597V57.4287H295.103V58.1795ZM286.091 58.1795H281.584V57.4287H286.091V58.1795ZM277.078 58.1795H272.572V57.4287H277.078V58.1795ZM268.065 58.1795H263.559V57.4287H268.065V58.1795ZM259.052 58.1795H254.546V57.4287H259.052V58.1795ZM250.04 58.1795H245.533V57.4287H250.04V58.1795ZM241.027 58.1795H236.52V57.4287H241.027V58.1795ZM232.014 58.1795H227.507V57.4287H232.014L232.014 58.1795ZM223.001 58.1795H218.495V57.4287H223.001V58.1795ZM213.988 58.1795H209.482V57.4287H213.988V58.1795ZM204.975 58.1795H200.469V57.4287H204.975V58.1795ZM195.963 58.1795H191.456V57.4287H195.963V58.1795ZM186.95 58.1795H182.443V57.4287H186.95V58.1795ZM177.937 58.1795H173.431V57.4287H177.937V58.1795ZM168.924 58.1795H164.418V57.4287H168.924V58.1795ZM159.911 58.1795H155.405V57.4287H159.911V58.1795ZM150.899 58.1795H146.392V57.4287H150.899V58.1795ZM141.886 58.1795H137.379V57.4287H141.886V58.1795ZM132.873 58.1795H128.366V57.4287H132.873V58.1795ZM123.86 58.1795H119.354V57.4287H123.86V58.1795ZM114.847 58.1795H110.341V57.4287H114.847V58.1795ZM105.834 58.1795H101.328V57.4287H105.834V58.1795ZM96.8217 58.1795H92.3152V57.4287H96.8217V58.1795ZM87.8088 58.1795H83.3023V57.4287H87.8088L87.8088 58.1795ZM78.7959 58.1795H74.2896V57.4287H78.7959V58.1795ZM69.7832 58.1795H65.2767V57.4287H69.7832V58.1795ZM60.7703 58.1795H56.2638V57.4287H60.7703V58.1795ZM51.7576 58.1795H47.2511V57.4287H51.7576V58.1795ZM42.7447 58.1795H38.2382V57.4287H42.7447V58.1795ZM33.7318 58.1795H29.2255V57.4287H33.7318V58.1795ZM24.7191 58.1795H20.2126V57.4287H24.7191V58.1795Z" fill="#E6E6E6"/>
<path d="M301.83 57.4287H299.61V58.1795H301.83V57.4287Z" fill="#E6E6E6"/>
<path d="M120.98 35.736C120.98 39.7775 119.798 43.7283 117.585 47.0887C115.372 50.4491 112.227 53.0682 108.546 54.6148C104.866 56.1614 100.817 56.5661 96.9097 55.7776C93.0029 54.9892 89.4142 53.043 86.5974 50.1852C83.7807 47.3274 81.8625 43.6864 81.0854 39.7225C80.3083 35.7587 80.7071 31.65 82.2315 27.9161C83.7559 24.1823 86.3374 20.9908 89.6495 18.7455C92.9616 16.5002 96.8555 15.3017 100.839 15.3017C103.487 15.2898 106.111 15.8101 108.56 16.8328C111.009 17.8555 113.234 19.3602 115.107 21.2601C116.979 23.16 118.462 25.4174 119.47 27.902C120.478 30.3866 120.991 33.0492 120.98 35.736Z" fill="#F2F2F2"/>
<path d="M109.076 30.8467L108.976 31.0289C109.863 28.811 109.057 26.078 107.474 24.4056C105.892 22.7333 103.692 21.9687 101.526 21.6654C99.9186 21.3776 98.2651 21.508 96.7205 22.0443C94.5064 22.9096 92.8148 24.9129 91.4025 26.9968C90.7565 27.95 90.1213 29.0367 90.1856 30.228C90.2454 31.3336 90.8922 32.2718 91.4219 33.2098C91.9516 34.1478 92.394 35.3115 92.0138 36.3353C91.7873 36.9453 91.3085 37.3847 90.92 37.8838C90.5315 38.3828 90.2119 39.0574 90.3996 39.6836C90.4829 39.9231 90.626 40.1367 90.815 40.3033C91.004 40.47 91.2324 40.584 91.4778 40.6343C91.9532 40.7148 92.4393 40.7031 92.9103 40.5999L105.257 38.7073C106.096 38.5787 106.891 38.2462 107.576 37.7381C108.261 37.2299 108.815 36.5613 109.19 35.7892C109.565 35.0171 109.751 34.1643 109.731 33.3037C109.711 32.4431 109.486 31.6001 109.076 30.8467Z" fill="#2F2E41"/>
<path d="M99.8926 38.6201C103.226 38.6201 105.929 35.8781 105.929 32.4957C105.929 29.1133 103.226 26.3713 99.8926 26.3713C96.5588 26.3713 93.8563 29.1133 93.8563 32.4957C93.8563 35.8781 96.5588 38.6201 99.8926 38.6201Z" fill="#FFB9B9"/>
<path d="M115.962 49.2282C112.473 53.2563 107.562 55.7308 102.29 56.1173C97.0184 56.5039 91.8081 54.7716 87.7842 51.2943L89.5117 46.4037C89.9021 45.535 90.5182 44.7906 91.2938 44.2502C92.0695 43.7098 92.9755 43.3937 93.9148 43.336L95.0138 43.2676L97.6343 40.9745C97.6343 40.9745 104.695 40.7187 104.59 40.5962L108.868 43.2063L108.864 43.1883L110.545 43.2928C111.485 43.3503 112.391 43.6662 113.166 44.2066C113.942 44.7471 114.558 45.4916 114.948 46.3604L115.962 49.2282Z" fill="#DC9C46"/>
<path d="M105.618 26.8115C105.462 25.9752 104.622 25.5927 103.901 25.4073C101.812 24.8665 99.6385 24.7454 97.5033 25.0509C95.9468 25.2761 94.3534 25.7727 93.224 27.0053C92.3133 28.0432 91.7973 29.3766 91.7687 30.7659C91.7226 31.5966 91.9056 32.4239 92.297 33.155C92.4721 33.4954 92.7314 33.7837 93.0495 33.9917C93.3675 34.1997 93.7335 34.3202 94.1113 34.3414L94.1837 34.5969C95.7463 34.3415 97.236 33.7466 98.551 32.853C99.8659 31.9594 100.975 30.7881 101.803 29.4192C101.47 30.6248 100.808 31.7102 99.8925 32.55C101.939 31.7193 103.717 30.3286 105.03 28.5327C105.389 28.0499 105.737 27.4478 105.618 26.8115Z" fill="#2F2E41"/>
<path d="M272.472 62.6474C283.595 62.6474 292.612 53.4986 292.612 42.2131C292.612 30.9275 283.595 21.7788 272.472 21.7788C261.348 21.7788 252.331 30.9275 252.331 42.2131C252.331 53.4986 261.348 62.6474 272.472 62.6474Z" fill="#F2F2F2"/>
<path d="M266.941 34.5453C268.511 34.5453 269.785 33.2537 269.785 31.6604C269.785 30.067 268.511 28.7754 266.941 28.7754C265.371 28.7754 264.098 30.067 264.098 31.6604C264.098 33.2537 265.371 34.5453 266.941 34.5453Z" fill="#2F2E41"/>
<path d="M271.491 45.5086C275.469 45.5086 278.694 42.2364 278.694 38.2C278.694 34.1635 275.469 30.8914 271.491 30.8914C267.512 30.8914 264.287 34.1635 264.287 38.2C264.287 42.2364 267.512 45.5086 271.491 45.5086Z" fill="#2F2E41"/>
<path d="M272.087 45.5068C275.32 45.5068 277.94 42.8478 277.94 39.5677C277.94 36.2877 275.32 33.6287 272.087 33.6287C268.854 33.6287 266.233 36.2877 266.233 39.5677C266.233 42.8478 268.854 45.5068 272.087 45.5068Z" fill="#9E616A"/>
<path d="M276.062 33.5134C275.036 32.8789 273.861 32.5357 272.66 32.5196C271.459 32.5036 270.275 32.8152 269.234 33.422C268.192 34.0288 267.33 34.9085 266.737 35.969C266.145 37.0295 265.845 38.232 265.868 39.4506C268.85 40.2104 271.984 40.7918 275.165 39.6323L275.916 37.767L276.359 39.6337C277.328 40.0354 278.299 40.3753 279.27 39.6298C279.31 38.4146 279.034 37.2102 278.471 36.1368C277.908 35.0635 277.078 34.1588 276.062 33.5134Z" fill="#2F2E41"/>
<path d="M264.294 23.8289C263.295 23.3966 262.198 23.2563 261.125 23.424C260.052 23.5917 259.047 24.0606 258.223 24.7778C257.417 25.5153 256.804 26.4437 256.438 27.48C256.071 28.5164 255.963 29.6286 256.123 30.7176C256.446 32.9324 257.773 34.8397 258.996 36.7031C260.22 38.5664 261.415 40.6082 261.413 42.8471C261.412 44.4597 260.781 46.006 259.658 47.147C258.535 48.2881 257.012 48.9306 255.422 48.9339C257.288 49.7486 259.235 50.5794 261.263 50.4828C263.292 50.3862 265.418 49.063 265.749 47.03C265.988 45.5652 265.279 44.1367 264.689 42.7784C263.726 40.5651 263.031 38.2421 262.617 35.8597C262.42 34.7226 262.291 33.5272 262.657 32.4338C262.948 31.6235 263.487 30.9296 264.197 30.4543C264.906 29.979 265.747 29.7474 266.596 29.7939L267.266 29.182C267.381 28.0869 267.156 26.9828 266.623 26.0233C266.091 25.0638 265.276 24.2968 264.294 23.8289Z" fill="#2F2E41"/>
<path d="M287.626 55.8851C284.137 59.9133 279.226 62.3878 273.954 62.7743C268.682 63.1609 263.472 61.4285 259.448 57.9513L261.175 53.0607C261.566 52.192 262.182 51.4476 262.958 50.9072C263.733 50.3667 264.639 50.0507 265.579 49.993L266.678 49.9245L269.298 47.6315C269.298 47.6315 276.359 47.3757 276.254 47.2532L280.531 49.8633L280.528 49.8453L282.209 49.9497C283.148 50.0072 284.054 50.3231 284.83 50.8636C285.606 51.404 286.222 52.1486 286.612 53.0174L287.626 55.8851Z" fill="#DC9C46"/>
<path d="M235.308 20.4705C235.301 24.512 234.113 28.4606 231.894 31.817C229.675 35.1735 226.525 37.7869 222.842 39.3269C219.159 40.8669 215.109 41.2643 211.204 40.4688C207.298 39.6733 203.713 37.7207 200.901 34.8578C198.089 31.995 196.178 28.3505 195.407 24.3853C194.637 20.42 195.043 16.3121 196.574 12.581C198.105 8.84983 200.692 5.66308 204.008 3.4237C207.324 1.18431 211.22 -0.00713364 215.204 3.21339e-05C217.85 -0.00217621 220.472 0.526333 222.917 1.55518C225.361 2.58403 227.582 4.09294 229.45 5.99519C231.318 7.89744 232.798 10.1555 233.803 12.6397C234.808 15.1238 235.32 17.7851 235.308 20.4705Z" fill="#F2F2F2"/>
<path d="M205.833 13.7871C206.666 11.0942 208.56 8.62447 211.179 7.71415C213.798 6.80382 217.633 8.19055 219.602 10.1816C223.204 13.8237 224.083 26.3354 221.609 30.2893C221.116 30.2628 219.418 30.2433 218.92 30.2243L218.215 27.8413V30.2009C217.421 30.176 216.622 30.1588 215.815 30.1493C213.113 30.1153 210.528 29.0195 208.606 27.0923C206.683 25.1651 205.571 22.5566 205.505 19.8151C205.44 17.1925 205.505 14.8482 205.833 13.7871Z" fill="#2F2E41"/>
<path d="M214.869 22.7115C218.039 22.7115 220.609 20.1041 220.609 16.8878C220.609 13.6715 218.039 11.0642 214.869 11.0642C211.699 11.0642 209.129 13.6715 209.129 16.8878C209.129 20.1041 211.699 22.7115 214.869 22.7115Z" fill="#9E616A"/>
<path d="M209.915 11.7735L216.524 8.41602C217.876 9.03376 219.039 10.007 219.895 11.2348C220.75 12.4626 221.266 13.9003 221.39 15.3987L221.554 17.4007L218.787 16.6859L218.484 14.126L218.014 16.4862L216.737 16.1565L216.749 12.1823L215.471 16.1537L210.909 15.0904L209.915 11.7735Z" fill="#2F2E41"/>
<path d="M230.114 33.9567C226.624 37.9849 221.714 40.4593 216.442 40.8459C211.17 41.2324 205.96 39.5001 201.936 36.0228L203.663 31.1322C204.054 30.2636 204.67 29.5191 205.445 28.9787C206.221 28.4383 207.127 28.1223 208.066 28.0645L209.165 27.9961L211.786 25.703C211.786 25.703 218.847 25.4472 218.742 25.3247L223.019 27.9348L223.015 27.9168L224.697 28.0213C225.636 28.0788 226.542 28.3947 227.318 28.9351C228.094 29.4756 228.71 30.2202 229.1 31.089L230.114 33.9567Z" fill="#DC9C46"/>
<path d="M159.8 73.9091C170.923 73.9091 179.94 64.7603 179.94 53.4748C179.94 42.1893 170.923 33.0405 159.8 33.0405C148.676 33.0405 139.659 42.1893 139.659 53.4748C139.659 64.7603 148.676 73.9091 159.8 73.9091Z" fill="#F2F2F2"/>
<path d="M159.244 56.0061C162.795 56.0061 165.673 53.0857 165.673 49.4833C165.673 45.8808 162.795 42.9604 159.244 42.9604C155.693 42.9604 152.815 45.8808 152.815 49.4833C152.815 53.0857 155.693 56.0061 159.244 56.0061Z" fill="#FFB6B6"/>
<path d="M174.91 67.1469C171.42 71.175 166.51 73.6495 161.238 74.036C155.966 74.4226 150.756 72.6903 146.732 69.213L148.459 64.3224C148.85 63.4537 149.466 62.7093 150.241 62.1689C151.017 61.6285 151.923 61.3124 152.862 61.2547L153.961 61.1863L156.582 58.8932C156.582 58.8932 163.643 58.6374 163.538 58.5149L167.815 61.125L167.811 61.107L169.493 61.2115C170.432 61.2689 171.338 61.5848 172.114 62.1253C172.89 62.6657 173.506 63.4103 173.896 64.2791L174.91 67.1469Z" fill="#DC9C46"/>
<path d="M166.024 45.4381C165.481 43.4652 164.247 41.7613 162.553 40.6463C161.203 39.7704 159.519 39.3232 157.99 39.7865C156.461 40.2497 155.195 41.7722 155.295 43.4173C155.012 43.3417 154.713 43.3482 154.433 43.4358C154.153 43.5235 153.903 43.689 153.711 43.9134C153.328 44.3729 153.061 44.9209 152.935 45.5093C152.444 47.3537 152.476 49.3011 153.028 51.1276L152.998 51.3897C153.744 51.2645 154.31 50.6151 154.662 49.9232C155.014 49.2313 155.216 48.4636 155.597 47.7886C155.979 47.1136 156.612 46.5115 157.368 46.4904L157.301 47.6621C157.951 47.3223 158.601 46.9826 159.251 46.6428C159.096 47.018 158.942 47.3933 158.787 47.7685C159.355 47.5278 159.923 47.2871 160.49 47.0464C160.427 47.4072 160.363 47.768 160.3 48.1288C160.449 47.8156 160.659 47.5363 160.917 47.3078C161.175 47.0792 161.477 46.9063 161.803 46.7993C162.129 46.6923 162.473 46.6536 162.814 46.6854C163.155 46.7172 163.487 46.819 163.788 46.9845C164.467 47.4479 164.956 48.1463 165.165 48.9491C165.371 49.75 165.481 50.5732 165.494 51.4009C166.371 49.5425 166.56 47.4258 166.024 45.4381Z" fill="#2F2E41"/>
<path d="M43.1994 83.1989C54.3228 83.1989 63.34 74.0501 63.34 62.7646C63.34 51.4791 54.3228 42.3303 43.1994 42.3303C32.0761 42.3303 23.0589 51.4791 23.0589 62.7646C23.0589 74.0501 32.0761 83.1989 43.1994 83.1989Z" fill="#F2F2F2"/>
<path d="M42.7561 64.8841C46.1306 64.8841 48.8662 62.1086 48.8662 58.6849C48.8662 55.2611 46.1306 52.4856 42.7561 52.4856C39.3815 52.4856 36.6459 55.2611 36.6459 58.6849C36.6459 62.1086 39.3815 64.8841 42.7561 64.8841Z" fill="#9E616A"/>
<path d="M58.05 76.2562C54.5607 80.2844 49.6501 82.7589 44.3782 83.1454C39.1063 83.532 33.896 81.7996 29.8721 78.3224L31.5996 73.4317C31.99 72.5631 32.6061 71.8187 33.3817 71.2782C34.1574 70.7378 35.0634 70.4218 36.0027 70.3641L37.1017 70.2956L39.7222 68.0026C39.7222 68.0026 46.7831 67.7468 46.6784 67.6243L50.9554 70.2344L50.9519 70.2164L52.6332 70.3209C53.5725 70.3783 54.4786 70.6942 55.2544 71.2347C56.0301 71.7751 56.6461 72.5197 57.0363 73.3885L58.05 76.2562Z" fill="#DC9C46"/>
<path d="M37.2043 61.5507C37.1923 61.5168 37.1813 61.4825 37.1695 61.4485C37.1459 61.4695 37.1234 61.4912 37.0979 61.5108L37.2043 61.5507Z" fill="#2F2E41"/>
<path d="M50.0754 56.4793C50.044 55.8503 49.8816 55.2351 49.5989 54.6744C49.3161 54.1137 48.9195 53.6202 48.435 53.2263C48.0495 52.9819 47.7097 52.6702 47.4313 52.3057C47.2968 52.027 47.1828 51.7386 47.0903 51.4429C46.6212 50.3102 45.2844 49.7082 44.0853 49.8797C43.489 49.9946 42.9217 50.2304 42.4173 50.5729C41.9128 50.9154 41.4816 51.3575 41.1494 51.8729C40.805 51.7055 40.4206 51.6417 40.0415 51.6891C39.6625 51.7365 39.3048 51.8931 39.0108 52.1403C38.7168 52.3876 38.4987 52.7152 38.3825 53.0842C38.2663 53.4533 38.2567 53.8485 38.355 54.2229C37.734 53.7154 36.7296 54.1213 36.3419 54.8283C35.9543 55.5353 36.0158 56.4005 36.1311 57.201C36.3399 58.6478 36.6876 60.0705 37.1695 61.4486C37.7741 60.9084 37.7369 59.9246 37.663 59.093C37.5863 58.2291 37.6323 57.1742 38.3769 56.7479C39.0963 56.336 39.9695 56.7882 40.7627 57.0221C41.3899 57.2023 42.0481 57.2424 42.692 57.1397C43.3359 57.0369 43.9502 56.7937 44.4926 56.4269C44.8829 56.1118 45.2925 55.8222 45.7191 55.5599C45.9345 55.4309 46.1792 55.3607 46.4292 55.3562C46.6793 55.3517 46.9263 55.413 47.1461 55.5342C47.494 55.8384 47.7277 56.255 47.8077 56.7138C48.1131 57.7647 48.4185 58.8155 48.724 59.8663C49.1723 59.4307 49.5246 58.9036 49.7575 58.3198C49.9904 57.736 50.0988 57.1087 50.0754 56.4793Z" fill="#2F2E41"/>
<path d="M43.2665 98.9255H41.3439V156.099H43.2665V98.9255Z" fill="#3F3D56"/>
<path d="M100.824 72.2236H98.9019V156.099H100.824V72.2236Z" fill="#3F3D56"/>
<path d="M158.501 89.7788H156.578V156.099H158.501V89.7788Z" fill="#3F3D56"/>
<path d="M216.177 57.5942H214.255V156.099H216.177V57.5942Z" fill="#3F3D56"/>
<path d="M273.854 80.0259H271.931V156.099H273.854V80.0259Z" fill="#3F3D56"/>
<path d="M99.9817 79.5351C103.23 79.5351 105.863 76.8635 105.863 73.568C105.863 70.2724 103.23 67.6008 99.9817 67.6008C96.7335 67.6008 94.1003 70.2724 94.1003 73.568C94.1003 76.8635 96.7335 79.5351 99.9817 79.5351Z" fill="#DC9C46"/>
<path d="M215.335 63.9306C218.583 63.9306 221.216 61.2591 221.216 57.9635C221.216 54.6679 218.583 51.9963 215.335 51.9963C212.086 51.9963 209.453 54.6679 209.453 57.9635C209.453 61.2591 212.086 63.9306 215.335 63.9306Z" fill="#DC9C46"/>
<path d="M157.658 96.115C160.906 96.115 163.539 93.4434 163.539 90.1478C163.539 86.8523 160.906 84.1807 157.658 84.1807C154.41 84.1807 151.777 86.8523 151.777 90.1478C151.777 93.4434 154.41 96.115 157.658 96.115Z" fill="#DC9C46"/>
<path d="M42.3052 104.893C45.5534 104.893 48.1866 102.221 48.1866 98.9257C48.1866 95.6301 45.5534 92.9585 42.3052 92.9585C39.057 92.9585 36.4238 95.6301 36.4238 98.9257C36.4238 102.221 39.057 104.893 42.3052 104.893Z" fill="#DC9C46"/>
<path d="M273.011 85.3869C276.259 85.3869 278.892 82.7154 278.892 79.4198C278.892 76.1242 276.259 73.4526 273.011 73.4526C269.763 73.4526 267.13 76.1242 267.13 79.4198C267.13 82.7154 269.763 85.3869 273.011 85.3869Z" fill="#DC9C46"/>
<path d="M314.267 155.509H2.02919L0.0687408 156.504C0.0687516 156.768 0.172027 157.021 0.355853 157.207C0.539679 157.394 0.789001 157.498 1.04897 157.498H314.267C314.527 157.498 314.777 157.394 314.96 157.207C315.144 157.021 315.248 156.768 315.248 156.504C315.248 156.24 315.144 155.987 314.96 155.801C314.777 155.614 314.527 155.509 314.267 155.509Z" fill="#3F3D56"/>
</svg>
